<svg width="16" height="16" viewBox="0 0 16 16" fill="none" xmlns="http://www.w3.org/2000/svg">
<g clip-path="url(#clip0_3_2534)">
<path d="M6.5 7.00003C7.32837 7.00003 8 6.32846 8 5.50003C8 4.6716 7.32837 4.00003 6.5 4.00003C5.67163 4.00003 5 4.6716 5 5.50003C5 6.32846 5.67163 7.00003 6.5 7.00003Z" fill="black"/>
<path d="M4 12L6 9.00003L6.94739 10.4211L9 7.00003L12 12H4Z" fill="black"/>
<path fill-rule="evenodd" clip-rule="evenodd" d="M2 3.05176e-05C0.895386 3.05176e-05 0 0.895478 0 2.00003V14C0 15.1046 0.895386 16 2 16H14C15.1046 16 16 15.1046 16 14V2.00003C16 0.895478 15.1046 3.05176e-05 14 3.05176e-05H2ZM14 2.00003H2V14H14V2.00003Z" fill="black"/>
</g>
<defs>
<clipPath id="clip0_3_2534">
<rect width="16" height="16" fill="white"/>
</clipPath>
</defs>
</svg>
