<svg width="16" height="14" viewBox="0 0 16 14" fill="none">
<path d="M15.6466 1.46261C15.4172 0.939522 14.9635 0.493328 14.4366 0.272758C13.3078 -0.16775 12.0373 0.36797 11.5212 1.42236L8.13634 9.17614C7.84204 9.85364 7.77399 10.6792 7.85467 11.3536L8.16856 13.001C8.24545 13.2254 8.39734 13.4491 8.62297 13.5222C8.6986 13.5966 8.84859 13.5953 8.92359 13.5947C9.07358 13.5934 9.22295 13.5171 9.29731 13.4415L10.7147 12.5295C11.3859 12.0739 11.8314 11.5451 12.1251 10.7926L15.5099 3.03882C15.8811 2.58567 15.8761 1.98569 15.6466 1.46261ZM10.9214 10.3527C10.7002 10.8046 10.4027 11.1071 10.0302 11.4103L9.50777 11.7147L9.42835 11.1903C9.34957 10.741 9.42077 10.2904 9.56698 9.83911L12.1413 3.81722L13.4957 4.33083L10.9214 10.3527ZM14.3055 2.52394L14.1587 2.90019L12.8043 2.38658L12.9512 2.01033C13.0986 1.70908 13.3224 1.55719 13.6223 1.55466C13.6973 1.55403 13.8473 1.55277 13.923 1.62713C14.0736 1.70087 14.2248 1.8496 14.3011 1.99896C14.378 2.22332 14.3793 2.37332 14.3055 2.52394Z" fill="white"/>
<path d="M1.62687 10.956L4.62676 10.9308C5.07674 10.927 5.37421 10.6245 5.37042 10.1745C5.36663 9.72449 5.06411 9.42703 4.61412 9.43082L1.61423 9.45609C1.16425 9.45988 0.866785 9.76239 0.870575 10.2124C0.874365 10.6624 1.17688 10.9598 1.62687 10.956Z" fill="white"/>
<path d="M6.13946 12.4181L1.63962 12.456C1.18964 12.4598 0.892175 12.7623 0.895966 13.2123C0.899756 13.6623 1.20227 13.9598 1.65226 13.956L6.1521 13.9181C6.60208 13.9143 6.89954 13.6118 6.89575 13.1618C6.89196 12.7118 6.58945 12.4143 6.13946 12.4181Z" fill="white"/>
</svg>
