<svg width="135" height="118" viewBox="0 0 135 118" fill="none" xmlns="http://www.w3.org/2000/svg">
<g filter="url(#filter0_d_236_42)">
<path d="M102.333 36.0485L125.539 31.5443C125.539 31.5443 120.079 23.2396 118.85 21.8321C117.622 20.4245 114.209 16.9056 112.844 15.6387C111.479 14.3719 109.158 12.6828 107.929 11.6975C106.701 10.7122 100.967 7.05256 98.6467 6.06726C96.326 5.08196 93.0497 3.67439 90.729 2.9706C88.4084 2.26681 83.6305 1.56915 81.9923 1.42227C80.3542 1.27539 77.7605 1 75.5763 1C73.3921 1 71.6175 1.14076 68.4777 1.70379C65.3379 2.26681 60.014 3.39287 57.0108 4.65969C54.0075 5.9265 49.9122 8.03786 48.4106 9.02316C46.9089 10.0085 42.5406 12.5421 37.8992 17.3278C33.2578 22.1136 29.7085 27.7439 27.7974 31.4035C25.8862 35.0632 23.702 41.3973 22.7465 46.6053C21.7909 51.8133 22.2004 57.8659 22.2004 57.8659L44.0422 52.3764C44.0422 52.3764 45.0079 46.183 45.8168 43.9309C46.6258 41.6788 48.4106 37.3153 51.2773 34.0779C54.144 30.8405 58.1029 27.3852 60.5601 25.914C63.0173 24.4429 69.2968 21.6913 74.3477 21.6913C79.3986 21.6913 84.7225 21.6913 91.6846 26.3363C98.6467 30.9813 102.042 35.706 102.333 36.0485Z" fill="url(#paint0_linear_236_42)" shape-rendering="crispEdges"/>
<path d="M102.333 36.0485L125.539 31.5443C125.539 31.5443 120.079 23.2396 118.85 21.8321C117.622 20.4245 114.209 16.9056 112.844 15.6387C111.479 14.3719 109.158 12.6828 107.929 11.6975C106.701 10.7122 100.967 7.05256 98.6467 6.06726C96.326 5.08196 93.0497 3.67439 90.729 2.9706C88.4084 2.26681 83.6305 1.56915 81.9923 1.42227C80.3542 1.27539 77.7605 1 75.5763 1C73.3921 1 71.6175 1.14076 68.4777 1.70379C65.3379 2.26681 60.014 3.39287 57.0108 4.65969C54.0075 5.9265 49.9122 8.03786 48.4106 9.02316C46.9089 10.0085 42.5406 12.5421 37.8992 17.3278C33.2578 22.1136 29.7085 27.7439 27.7974 31.4035C25.8862 35.0632 23.702 41.3973 22.7465 46.6053C21.7909 51.8133 22.2004 57.8659 22.2004 57.8659L44.0422 52.3764C44.0422 52.3764 45.0079 46.183 45.8168 43.9309C46.6258 41.6788 48.4106 37.3153 51.2773 34.0779C54.144 30.8405 58.1029 27.3852 60.5601 25.914C63.0173 24.4429 69.2968 21.6913 74.3477 21.6913C79.3986 21.6913 84.7225 21.6913 91.6846 26.3363C98.6467 30.9813 102.042 35.706 102.333 36.0485Z" stroke="#FF0000" stroke-opacity="0.34" shape-rendering="crispEdges"/>
</g>
<defs>
<filter id="filter0_d_236_42" x="0.876953" y="0.5" width="133.531" height="117.253" filterUnits="userSpaceOnUse" color-interpolation-filters="sRGB">
<feFlood flood-opacity="0" result="BackgroundImageFix"/>
<feColorMatrix in="SourceAlpha" type="matrix" values="0 0 0 0 0 0 0 0 0 0 0 0 0 0 0 0 0 0 127 0" result="hardAlpha"/>
<feOffset dy="4"/>
<feGaussianBlur stdDeviation="2"/>
<feComposite in2="hardAlpha" operator="out"/>
<feColorMatrix type="matrix" values="0 0 0 0 0 0 0 0 0 0 0 0 0 0 0 0 0 0 0.25 0"/>
<feBlend mode="normal" in2="BackgroundImageFix" result="effect1_dropShadow_236_42"/>
<feBlend mode="normal" in="SourceGraphic" in2="effect1_dropShadow_236_42" result="shape"/>
</filter>
<linearGradient id="paint0_linear_236_42" x1="67.4539" y1="1" x2="67.4539" y2="109.253" gradientUnits="userSpaceOnUse">
<stop stop-color="#C0B7E8"/>
<stop offset="1" stop-color="#8177B0"/>
</linearGradient>
</defs>
</svg>
