<svg width="1283" height="1016" viewBox="0 0 1283 1016" fill="none" xmlns="http://www.w3.org/2000/svg">
<g filter="url(#filter0_d_13_72)">
<path d="M4 100C4 44.7715 48.7715 0 104 0H1179C1234.23 0 1279 44.7715 1279 100V908C1279 963.229 1234.23 1008 1179 1008H104C48.7715 1008 4 963.228 4 908V100Z" fill="url(#paint0_radial_13_72)"/>
</g>
<path d="M328.988 122V96.8H334.82V122H328.988ZM346.201 108.14H358.297V112.82H346.201V108.14ZM346.633 122H340.801V96.8H359.845V101.48H346.633V122ZM380.252 122V111.704L381.584 115.232L370.496 96.8H376.688L385.184 110.948H381.62L390.152 96.8H395.876L384.788 115.232L386.084 111.704V122H380.252ZM409.466 122.432C407.474 122.432 405.626 122.108 403.922 121.46C402.242 120.812 400.778 119.9 399.53 118.724C398.306 117.548 397.346 116.168 396.65 114.584C395.978 113 395.642 111.272 395.642 109.4C395.642 107.528 395.978 105.8 396.65 104.216C397.346 102.632 398.318 101.252 399.566 100.076C400.814 98.9 402.278 97.988 403.958 97.34C405.638 96.692 407.462 96.368 409.43 96.368C411.422 96.368 413.246 96.692 414.902 97.34C416.582 97.988 418.034 98.9 419.258 100.076C420.506 101.252 421.478 102.632 422.174 104.216C422.87 105.776 423.218 107.504 423.218 109.4C423.218 111.272 422.87 113.012 422.174 114.62C421.478 116.204 420.506 117.584 419.258 118.76C418.034 119.912 416.582 120.812 414.902 121.46C413.246 122.108 411.434 122.432 409.466 122.432ZM409.43 117.464C410.558 117.464 411.59 117.272 412.526 116.888C413.486 116.504 414.326 115.952 415.046 115.232C415.766 114.512 416.318 113.66 416.702 112.676C417.11 111.692 417.314 110.6 417.314 109.4C417.314 108.2 417.11 107.108 416.702 106.124C416.318 105.14 415.766 104.288 415.046 103.568C414.35 102.848 413.522 102.296 412.562 101.912C411.602 101.528 410.558 101.336 409.43 101.336C408.302 101.336 407.258 101.528 406.298 101.912C405.362 102.296 404.534 102.848 403.814 103.568C403.094 104.288 402.53 105.14 402.122 106.124C401.738 107.108 401.546 108.2 401.546 109.4C401.546 110.576 401.738 111.668 402.122 112.676C402.53 113.66 403.082 114.512 403.778 115.232C404.498 115.952 405.338 116.504 406.298 116.888C407.258 117.272 408.302 117.464 409.43 117.464ZM438.797 122.432C435.221 122.432 432.425 121.436 430.409 119.444C428.393 117.452 427.385 114.608 427.385 110.912V96.8H433.217V110.696C433.217 113.096 433.709 114.824 434.693 115.88C435.677 116.936 437.057 117.464 438.833 117.464C440.609 117.464 441.989 116.936 442.973 115.88C443.957 114.824 444.449 113.096 444.449 110.696V96.8H450.209V110.912C450.209 114.608 449.201 117.452 447.185 119.444C445.169 121.436 442.373 122.432 438.797 122.432ZM483.448 96.8H489.28V122H483.448V96.8ZM472 122H466.168V96.8H472V122ZM483.88 111.668H471.568V106.736H483.88V111.668ZM491.93 122L503.162 96.8H508.922L520.19 122H514.07L504.854 99.752H507.158L497.906 122H491.93ZM497.546 116.6L499.094 112.172H512.054L513.638 116.6H497.546ZM528.993 122L518.121 96.8H524.421L533.925 119.12H530.217L539.865 96.8H545.661L534.753 122H528.993ZM553.129 106.952H565.261V111.488H553.129V106.952ZM553.561 117.32H567.277V122H547.765V96.8H566.809V101.48H553.561V117.32ZM590.393 122.432C588.377 122.432 586.445 122.168 584.597 121.64C582.749 121.088 581.261 120.38 580.133 119.516L582.113 115.124C583.193 115.892 584.465 116.528 585.929 117.032C587.417 117.512 588.917 117.752 590.429 117.752C591.581 117.752 592.505 117.644 593.201 117.428C593.921 117.188 594.449 116.864 594.785 116.456C595.121 116.048 595.289 115.58 595.289 115.052C595.289 114.38 595.025 113.852 594.497 113.468C593.969 113.06 593.273 112.736 592.409 112.496C591.545 112.232 590.585 111.992 589.529 111.776C588.497 111.536 587.453 111.248 586.397 110.912C585.365 110.576 584.417 110.144 583.553 109.616C582.689 109.088 581.981 108.392 581.429 107.528C580.901 106.664 580.637 105.56 580.637 104.216C580.637 102.776 581.021 101.468 581.789 100.292C582.581 99.092 583.757 98.144 585.317 97.448C586.901 96.728 588.881 96.368 591.257 96.368C592.841 96.368 594.401 96.56 595.937 96.944C597.473 97.304 598.829 97.856 600.005 98.6L598.205 103.028C597.029 102.356 595.853 101.864 594.677 101.552C593.501 101.216 592.349 101.048 591.221 101.048C590.093 101.048 589.169 101.18 588.449 101.444C587.729 101.708 587.213 102.056 586.901 102.488C586.589 102.896 586.433 103.376 586.433 103.928C586.433 104.576 586.697 105.104 587.225 105.512C587.753 105.896 588.449 106.208 589.313 106.448C590.177 106.688 591.125 106.928 592.157 107.168C593.213 107.408 594.257 107.684 595.289 107.996C596.345 108.308 597.305 108.728 598.169 109.256C599.033 109.784 599.729 110.48 600.257 111.344C600.809 112.208 601.085 113.3 601.085 114.62C601.085 116.036 600.689 117.332 599.897 118.508C599.105 119.684 597.917 120.632 596.333 121.352C594.773 122.072 592.793 122.432 590.393 122.432ZM617.31 122.432C615.318 122.432 613.47 122.108 611.766 121.46C610.086 120.812 608.622 119.9 607.374 118.724C606.15 117.548 605.19 116.168 604.494 114.584C603.822 113 603.486 111.272 603.486 109.4C603.486 107.528 603.822 105.8 604.494 104.216C605.19 102.632 606.162 101.252 607.41 100.076C608.658 98.9 610.122 97.988 611.802 97.34C613.482 96.692 615.306 96.368 617.274 96.368C619.266 96.368 621.09 96.692 622.746 97.34C624.426 97.988 625.878 98.9 627.102 100.076C628.35 101.252 629.322 102.632 630.018 104.216C630.714 105.776 631.062 107.504 631.062 109.4C631.062 111.272 630.714 113.012 630.018 114.62C629.322 116.204 628.35 117.584 627.102 118.76C625.878 119.912 624.426 120.812 622.746 121.46C621.09 122.108 619.278 122.432 617.31 122.432ZM617.274 117.464C618.402 117.464 619.434 117.272 620.37 116.888C621.33 116.504 622.17 115.952 622.89 115.232C623.61 114.512 624.162 113.66 624.546 112.676C624.954 111.692 625.158 110.6 625.158 109.4C625.158 108.2 624.954 107.108 624.546 106.124C624.162 105.14 623.61 104.288 622.89 103.568C622.194 102.848 621.366 102.296 620.406 101.912C619.446 101.528 618.402 101.336 617.274 101.336C616.146 101.336 615.102 101.528 614.142 101.912C613.206 102.296 612.378 102.848 611.658 103.568C610.938 104.288 610.374 105.14 609.966 106.124C609.582 107.108 609.39 108.2 609.39 109.4C609.39 110.576 609.582 111.668 609.966 112.676C610.374 113.66 610.926 114.512 611.622 115.232C612.342 115.952 613.182 116.504 614.142 116.888C615.102 117.272 616.146 117.464 617.274 117.464ZM635.445 122V96.8H640.269L650.997 114.584H648.441L658.989 96.8H663.777L663.849 122H658.377L658.341 105.188H659.349L650.925 119.336H648.297L639.693 105.188H640.917V122H635.445ZM675.192 106.952H687.324V111.488H675.192V106.952ZM675.624 117.32H689.34V122H669.828V96.8H688.872V101.48H675.624V117.32ZM699.2 122V101.552H691.136V96.8H713.096V101.552H705.032V122H699.2ZM733.514 96.8H739.346V122H733.514V96.8ZM722.066 122H716.234V96.8H722.066V122ZM733.946 111.668H721.634V106.736H733.946V111.668ZM745.308 122V96.8H751.14V122H745.308ZM757.121 122V96.8H761.945L776.813 114.944H774.473V96.8H780.233V122H775.445L760.541 103.856H762.881V122H757.121ZM798.363 122.432C796.371 122.432 794.535 122.12 792.855 121.496C791.199 120.848 789.747 119.936 788.499 118.76C787.275 117.584 786.315 116.204 785.619 114.62C784.947 113.036 784.611 111.296 784.611 109.4C784.611 107.504 784.947 105.764 785.619 104.18C786.315 102.596 787.287 101.216 788.535 100.04C789.783 98.864 791.247 97.964 792.927 97.34C794.607 96.692 796.455 96.368 798.471 96.368C800.703 96.368 802.707 96.74 804.483 97.484C806.283 98.228 807.795 99.308 809.019 100.724L805.275 104.18C804.363 103.22 803.367 102.512 802.287 102.056C801.207 101.576 800.031 101.336 798.759 101.336C797.535 101.336 796.419 101.528 795.411 101.912C794.403 102.296 793.527 102.848 792.783 103.568C792.063 104.288 791.499 105.14 791.091 106.124C790.707 107.108 790.515 108.2 790.515 109.4C790.515 110.576 790.707 111.656 791.091 112.64C791.499 113.624 792.063 114.488 792.783 115.232C793.527 115.952 794.391 116.504 795.375 116.888C796.383 117.272 797.487 117.464 798.687 117.464C799.839 117.464 800.955 117.284 802.035 116.924C803.139 116.54 804.207 115.904 805.239 115.016L808.551 119.228C807.183 120.26 805.587 121.052 803.763 121.604C801.963 122.156 800.163 122.432 798.363 122.432ZM803.223 118.472V109.004H808.551V119.228L803.223 118.472ZM829.384 122V101.552H821.32V96.8H843.28V101.552H835.216V122H829.384ZM858.306 122.432C856.314 122.432 854.466 122.108 852.762 121.46C851.082 120.812 849.618 119.9 848.37 118.724C847.146 117.548 846.186 116.168 845.49 114.584C844.818 113 844.482 111.272 844.482 109.4C844.482 107.528 844.818 105.8 845.49 104.216C846.186 102.632 847.158 101.252 848.406 100.076C849.654 98.9 851.118 97.988 852.798 97.34C854.478 96.692 856.302 96.368 858.27 96.368C860.262 96.368 862.086 96.692 863.742 97.34C865.422 97.988 866.874 98.9 868.098 100.076C869.346 101.252 870.318 102.632 871.014 104.216C871.71 105.776 872.058 107.504 872.058 109.4C872.058 111.272 871.71 113.012 871.014 114.62C870.318 116.204 869.346 117.584 868.098 118.76C866.874 119.912 865.422 120.812 863.742 121.46C862.086 122.108 860.274 122.432 858.306 122.432ZM858.27 117.464C859.398 117.464 860.43 117.272 861.366 116.888C862.326 116.504 863.166 115.952 863.886 115.232C864.606 114.512 865.158 113.66 865.542 112.676C865.95 111.692 866.154 110.6 866.154 109.4C866.154 108.2 865.95 107.108 865.542 106.124C865.158 105.14 864.606 104.288 863.886 103.568C863.19 102.848 862.362 102.296 861.402 101.912C860.442 101.528 859.398 101.336 858.27 101.336C857.142 101.336 856.098 101.528 855.138 101.912C854.202 102.296 853.374 102.848 852.654 103.568C851.934 104.288 851.37 105.14 850.962 106.124C850.578 107.108 850.386 108.2 850.386 109.4C850.386 110.576 850.578 111.668 850.962 112.676C851.37 113.66 851.922 114.512 852.618 115.232C853.338 115.952 854.178 116.504 855.138 116.888C856.098 117.272 857.142 117.464 858.27 117.464ZM894.916 122.432C892.9 122.432 890.968 122.168 889.12 121.64C887.272 121.088 885.784 120.38 884.656 119.516L886.636 115.124C887.716 115.892 888.988 116.528 890.452 117.032C891.94 117.512 893.44 117.752 894.952 117.752C896.104 117.752 897.028 117.644 897.724 117.428C898.444 117.188 898.972 116.864 899.308 116.456C899.644 116.048 899.812 115.58 899.812 115.052C899.812 114.38 899.548 113.852 899.02 113.468C898.492 113.06 897.796 112.736 896.932 112.496C896.068 112.232 895.108 111.992 894.052 111.776C893.02 111.536 891.976 111.248 890.92 110.912C889.888 110.576 888.94 110.144 888.076 109.616C887.212 109.088 886.504 108.392 885.952 107.528C885.424 106.664 885.16 105.56 885.16 104.216C885.16 102.776 885.544 101.468 886.312 100.292C887.104 99.092 888.28 98.144 889.84 97.448C891.424 96.728 893.404 96.368 895.78 96.368C897.364 96.368 898.924 96.56 900.46 96.944C901.996 97.304 903.352 97.856 904.528 98.6L902.728 103.028C901.552 102.356 900.376 101.864 899.2 101.552C898.024 101.216 896.872 101.048 895.744 101.048C894.616 101.048 893.692 101.18 892.972 101.444C892.252 101.708 891.736 102.056 891.424 102.488C891.112 102.896 890.956 103.376 890.956 103.928C890.956 104.576 891.22 105.104 891.748 105.512C892.276 105.896 892.972 106.208 893.836 106.448C894.7 106.688 895.648 106.928 896.68 107.168C897.736 107.408 898.78 107.684 899.812 107.996C900.868 108.308 901.828 108.728 902.692 109.256C903.556 109.784 904.252 110.48 904.78 111.344C905.332 112.208 905.608 113.3 905.608 114.62C905.608 116.036 905.212 117.332 904.42 118.508C903.628 119.684 902.44 120.632 900.856 121.352C899.296 122.072 897.316 122.432 894.916 122.432ZM906.281 122L917.513 96.8H923.273L934.541 122H928.421L919.205 99.752H921.509L912.257 122H906.281ZM911.897 116.6L913.445 112.172H926.405L927.989 116.6H911.897ZM941.873 122V111.704L943.205 115.232L932.117 96.8H938.309L946.805 110.948H943.241L951.773 96.8H957.497L946.409 115.232L947.705 111.704V122H941.873Z" fill="white"/>
<path d="M534.392 220V194.8H536.228V218.344H550.736V220H534.392ZM562.19 220.144C560.294 220.144 558.614 219.736 557.15 218.92C555.71 218.104 554.57 216.976 553.73 215.536C552.914 214.096 552.506 212.452 552.506 210.604C552.506 208.732 552.89 207.088 553.658 205.672C554.45 204.232 555.53 203.104 556.898 202.288C558.266 201.472 559.802 201.064 561.506 201.064C563.21 201.064 564.734 201.46 566.078 202.252C567.446 203.044 568.514 204.16 569.282 205.6C570.074 207.016 570.47 208.66 570.47 210.532C570.47 210.604 570.458 210.688 570.434 210.784C570.434 210.856 570.434 210.94 570.434 211.036H553.838V209.632H569.462L568.742 210.316C568.766 208.852 568.454 207.544 567.806 206.392C567.182 205.216 566.33 204.304 565.25 203.656C564.17 202.984 562.922 202.648 561.506 202.648C560.114 202.648 558.866 202.984 557.762 203.656C556.682 204.304 555.83 205.216 555.206 206.392C554.582 207.544 554.27 208.864 554.27 210.352V210.676C554.27 212.212 554.606 213.58 555.278 214.78C555.974 215.956 556.922 216.88 558.122 217.552C559.322 218.2 560.69 218.524 562.226 218.524C563.426 218.524 564.542 218.308 565.574 217.876C566.63 217.444 567.518 216.784 568.238 215.896L569.282 217.084C568.466 218.092 567.434 218.86 566.186 219.388C564.962 219.892 563.63 220.144 562.19 220.144ZM581.511 220.144C579.855 220.144 578.583 219.688 577.695 218.776C576.831 217.864 576.399 216.616 576.399 215.032V197.104H578.199V214.852C578.199 216.052 578.499 216.976 579.099 217.624C579.699 218.272 580.563 218.596 581.691 218.596C582.867 218.596 583.839 218.248 584.607 217.552L585.363 218.812C584.883 219.268 584.295 219.604 583.599 219.82C582.927 220.036 582.231 220.144 581.511 220.144ZM572.943 202.756V201.208H584.175V202.756H572.943ZM610.069 220.18C606.949 220.18 604.489 219.268 602.689 217.444C600.889 215.62 599.989 212.908 599.989 209.308V194.8H601.825V209.236C601.825 212.38 602.545 214.708 603.985 216.22C605.425 217.732 607.465 218.488 610.105 218.488C612.721 218.488 614.749 217.732 616.189 216.22C617.629 214.708 618.349 212.38 618.349 209.236V194.8H620.185V209.308C620.185 212.908 619.285 215.62 617.485 217.444C615.685 219.268 613.213 220.18 610.069 220.18ZM632.927 220.144C631.367 220.144 629.903 219.916 628.535 219.46C627.191 219.004 626.147 218.428 625.403 217.732L626.231 216.292C626.951 216.916 627.911 217.456 629.111 217.912C630.311 218.344 631.607 218.56 632.999 218.56C634.967 218.56 636.383 218.236 637.247 217.588C638.111 216.94 638.543 216.088 638.543 215.032C638.543 214.264 638.315 213.664 637.859 213.232C637.427 212.776 636.839 212.428 636.095 212.188C635.351 211.948 634.535 211.756 633.647 211.612C632.759 211.444 631.871 211.264 630.983 211.072C630.095 210.88 629.279 210.604 628.535 210.244C627.791 209.884 627.191 209.392 626.735 208.768C626.303 208.12 626.087 207.268 626.087 206.212C626.087 205.252 626.351 204.388 626.879 203.62C627.407 202.852 628.199 202.24 629.255 201.784C630.311 201.304 631.631 201.064 633.215 201.064C634.391 201.064 635.567 201.232 636.743 201.568C637.943 201.904 638.915 202.348 639.659 202.9L638.831 204.34C638.039 203.74 637.151 203.308 636.167 203.044C635.183 202.78 634.187 202.648 633.179 202.648C631.355 202.648 630.011 202.984 629.147 203.656C628.307 204.328 627.887 205.168 627.887 206.176C627.887 206.968 628.103 207.604 628.535 208.084C628.991 208.54 629.591 208.9 630.335 209.164C631.079 209.404 631.895 209.608 632.783 209.776C633.671 209.92 634.559 210.088 635.447 210.28C636.335 210.472 637.151 210.748 637.895 211.108C638.639 211.444 639.227 211.924 639.659 212.548C640.115 213.148 640.343 213.964 640.343 214.996C640.343 216.028 640.055 216.928 639.479 217.696C638.927 218.464 638.099 219.064 636.995 219.496C635.891 219.928 634.535 220.144 632.927 220.144ZM656.773 213.628L656.701 211.324L672.757 194.8H674.989L663.757 206.428L662.713 207.544L656.773 213.628ZM655.189 220V194.8H657.025V220H655.189ZM673.513 220L662.173 207.04L663.433 205.708L675.745 220H673.513ZM688.754 201.064C690.29 201.064 691.622 201.364 692.75 201.964C693.902 202.54 694.79 203.428 695.414 204.628C696.062 205.804 696.386 207.268 696.386 209.02V220H694.586V209.164C694.586 207.052 694.046 205.444 692.966 204.34C691.91 203.236 690.422 202.684 688.502 202.684C687.038 202.684 685.766 202.984 684.686 203.584C683.606 204.184 682.778 205.024 682.202 206.104C681.65 207.184 681.374 208.48 681.374 209.992V220H679.574V201.208H681.302V206.428L681.05 205.852C681.626 204.364 682.574 203.2 683.894 202.36C685.214 201.496 686.834 201.064 688.754 201.064ZM711.14 220.144C709.34 220.144 707.732 219.736 706.316 218.92C704.924 218.104 703.808 216.976 702.968 215.536C702.152 214.096 701.744 212.452 701.744 210.604C701.744 208.732 702.152 207.088 702.968 205.672C703.808 204.232 704.924 203.104 706.316 202.288C707.732 201.472 709.34 201.064 711.14 201.064C712.94 201.064 714.548 201.472 715.964 202.288C717.38 203.104 718.496 204.232 719.312 205.672C720.128 207.088 720.536 208.732 720.536 210.604C720.536 212.452 720.128 214.096 719.312 215.536C718.496 216.976 717.38 218.104 715.964 218.92C714.548 219.736 712.94 220.144 711.14 220.144ZM711.14 218.524C712.58 218.524 713.876 218.2 715.028 217.552C716.18 216.88 717.08 215.944 717.728 214.744C718.376 213.544 718.7 212.164 718.7 210.604C718.7 209.02 718.376 207.64 717.728 206.464C717.08 205.264 716.18 204.34 715.028 203.692C713.876 203.02 712.58 202.684 711.14 202.684C709.7 202.684 708.404 203.02 707.252 203.692C706.124 204.34 705.224 205.264 704.552 206.464C703.904 207.64 703.58 209.02 703.58 210.604C703.58 212.164 703.904 213.544 704.552 214.744C705.224 215.944 706.124 216.88 707.252 217.552C708.404 218.2 709.7 218.524 711.14 218.524ZM729.265 220L722.137 201.208H723.865L730.489 218.992H729.733L736.537 201.208H738.085L744.853 218.992H744.061L750.793 201.208H752.449L745.321 220H743.629L737.005 202.936H737.581L730.921 220H729.265Z" fill="white"/>
<rect x="112" y="295" width="522" height="70" rx="35" stroke="white" stroke-width="2"/>
<rect x="646" y="295" width="522" height="70" rx="35" stroke="white" stroke-width="2"/>
<path d="M155.52 329.946H160.7V330.842H155.52V329.946ZM155.632 335H154.596V325.2H161.316V326.096H155.632V335ZM163.245 335V327.65H164.239V335H163.245ZM163.749 326.026C163.544 326.026 163.371 325.956 163.231 325.816C163.091 325.676 163.021 325.508 163.021 325.312C163.021 325.116 163.091 324.953 163.231 324.822C163.371 324.682 163.544 324.612 163.749 324.612C163.955 324.612 164.127 324.677 164.267 324.808C164.407 324.939 164.477 325.102 164.477 325.298C164.477 325.503 164.407 325.676 164.267 325.816C164.137 325.956 163.964 326.026 163.749 326.026ZM167.005 335V327.65H167.957V329.652L167.859 329.302C168.064 328.742 168.41 328.317 168.895 328.028C169.38 327.729 169.982 327.58 170.701 327.58V328.546C170.664 328.546 170.626 328.546 170.589 328.546C170.552 328.537 170.514 328.532 170.477 328.532C169.702 328.532 169.096 328.77 168.657 329.246C168.218 329.713 167.999 330.38 167.999 331.248V335H167.005ZM174.571 335.07C173.964 335.07 173.39 334.986 172.849 334.818C172.308 334.641 171.883 334.421 171.575 334.16L172.023 333.376C172.322 333.6 172.704 333.796 173.171 333.964C173.638 334.123 174.128 334.202 174.641 334.202C175.341 334.202 175.845 334.095 176.153 333.88C176.461 333.656 176.615 333.362 176.615 332.998C176.615 332.727 176.526 332.517 176.349 332.368C176.181 332.209 175.957 332.093 175.677 332.018C175.397 331.934 175.084 331.864 174.739 331.808C174.394 331.752 174.048 331.687 173.703 331.612C173.367 331.537 173.059 331.43 172.779 331.29C172.499 331.141 172.27 330.94 172.093 330.688C171.925 330.436 171.841 330.1 171.841 329.68C171.841 329.279 171.953 328.919 172.177 328.602C172.401 328.285 172.728 328.037 173.157 327.86C173.596 327.673 174.128 327.58 174.753 327.58C175.229 327.58 175.705 327.645 176.181 327.776C176.657 327.897 177.049 328.061 177.357 328.266L176.923 329.064C176.596 328.84 176.246 328.681 175.873 328.588C175.5 328.485 175.126 328.434 174.753 328.434C174.09 328.434 173.6 328.551 173.283 328.784C172.975 329.008 172.821 329.297 172.821 329.652C172.821 329.932 172.905 330.151 173.073 330.31C173.25 330.469 173.479 330.595 173.759 330.688C174.048 330.772 174.361 330.842 174.697 330.898C175.042 330.954 175.383 331.024 175.719 331.108C176.064 331.183 176.377 331.29 176.657 331.43C176.946 331.561 177.175 331.752 177.343 332.004C177.52 332.247 177.609 332.569 177.609 332.97C177.609 333.399 177.488 333.773 177.245 334.09C177.012 334.398 176.666 334.641 176.209 334.818C175.761 334.986 175.215 335.07 174.571 335.07ZM181.757 335.07C181.066 335.07 180.534 334.883 180.161 334.51C179.788 334.137 179.601 333.609 179.601 332.928V326.026H180.595V332.872C180.595 333.301 180.702 333.633 180.917 333.866C181.141 334.099 181.458 334.216 181.869 334.216C182.308 334.216 182.672 334.09 182.961 333.838L183.311 334.552C183.115 334.729 182.877 334.86 182.597 334.944C182.326 335.028 182.046 335.07 181.757 335.07ZM178.285 328.476V327.65H182.835V328.476H178.285ZM188.994 335V325.2H189.848L196.61 333.712H196.162V325.2H197.184V335H196.33L189.582 326.488H190.03V335H188.994ZM204.779 335V333.376L204.737 333.11V330.394C204.737 329.769 204.56 329.288 204.205 328.952C203.86 328.616 203.342 328.448 202.651 328.448C202.175 328.448 201.722 328.527 201.293 328.686C200.864 328.845 200.5 329.055 200.201 329.316L199.753 328.574C200.126 328.257 200.574 328.014 201.097 327.846C201.62 327.669 202.17 327.58 202.749 327.58C203.701 327.58 204.434 327.818 204.947 328.294C205.47 328.761 205.731 329.475 205.731 330.436V335H204.779ZM202.245 335.07C201.694 335.07 201.214 334.981 200.803 334.804C200.402 334.617 200.094 334.365 199.879 334.048C199.664 333.721 199.557 333.348 199.557 332.928C199.557 332.545 199.646 332.2 199.823 331.892C200.01 331.575 200.308 331.323 200.719 331.136C201.139 330.94 201.699 330.842 202.399 330.842H204.933V331.584H202.427C201.718 331.584 201.223 331.71 200.943 331.962C200.672 332.214 200.537 332.527 200.537 332.9C200.537 333.32 200.7 333.656 201.027 333.908C201.354 334.16 201.811 334.286 202.399 334.286C202.959 334.286 203.44 334.16 203.841 333.908C204.252 333.647 204.55 333.273 204.737 332.788L204.961 333.474C204.774 333.959 204.448 334.347 203.981 334.636C203.524 334.925 202.945 335.07 202.245 335.07ZM217.615 327.58C218.212 327.58 218.73 327.697 219.169 327.93C219.617 328.154 219.962 328.499 220.205 328.966C220.457 329.433 220.583 330.021 220.583 330.73V335H219.589V330.828C219.589 330.053 219.402 329.47 219.029 329.078C218.665 328.677 218.147 328.476 217.475 328.476C216.971 328.476 216.532 328.583 216.159 328.798C215.795 329.003 215.51 329.307 215.305 329.708C215.109 330.1 215.011 330.576 215.011 331.136V335H214.017V330.828C214.017 330.053 213.83 329.47 213.457 329.078C213.084 328.677 212.561 328.476 211.889 328.476C211.394 328.476 210.96 328.583 210.587 328.798C210.214 329.003 209.924 329.307 209.719 329.708C209.523 330.1 209.425 330.576 209.425 331.136V335H208.431V327.65H209.383V329.638L209.229 329.288C209.453 328.756 209.812 328.341 210.307 328.042C210.811 327.734 211.404 327.58 212.085 327.58C212.804 327.58 213.415 327.762 213.919 328.126C214.423 328.481 214.75 329.017 214.899 329.736L214.507 329.582C214.722 328.985 215.1 328.504 215.641 328.14C216.192 327.767 216.85 327.58 217.615 327.58ZM226.401 335.07C225.635 335.07 224.963 334.911 224.385 334.594C223.806 334.267 223.353 333.824 223.027 333.264C222.7 332.695 222.537 332.046 222.537 331.318C222.537 330.59 222.691 329.946 222.999 329.386C223.316 328.826 223.745 328.387 224.287 328.07C224.837 327.743 225.453 327.58 226.135 327.58C226.825 327.58 227.437 327.739 227.969 328.056C228.51 328.364 228.935 328.803 229.243 329.372C229.551 329.932 229.705 330.581 229.705 331.318C229.705 331.365 229.7 331.416 229.691 331.472C229.691 331.519 229.691 331.57 229.691 331.626H223.293V330.884H229.159L228.767 331.178C228.767 330.646 228.65 330.175 228.417 329.764C228.193 329.344 227.885 329.017 227.493 328.784C227.101 328.551 226.648 328.434 226.135 328.434C225.631 328.434 225.178 328.551 224.777 328.784C224.375 329.017 224.063 329.344 223.839 329.764C223.615 330.184 223.503 330.665 223.503 331.206V331.36C223.503 331.92 223.624 332.415 223.867 332.844C224.119 333.264 224.464 333.595 224.903 333.838C225.351 334.071 225.859 334.188 226.429 334.188C226.877 334.188 227.292 334.109 227.675 333.95C228.067 333.791 228.403 333.549 228.683 333.222L229.243 333.866C228.916 334.258 228.505 334.557 228.011 334.762C227.525 334.967 226.989 335.07 226.401 335.07Z" fill="white"/>
<rect x="113" y="406" width="522" height="70" rx="35" stroke="white" stroke-width="2"/>
<path d="M162.526 445.104V446H155.596V436.2H162.316V437.096H156.632V440.582H161.7V441.464H156.632V445.104H162.526ZM173.935 438.58C174.859 438.58 175.583 438.846 176.105 439.378C176.637 439.91 176.903 440.694 176.903 441.73V446H175.909V441.828C175.909 441.063 175.723 440.479 175.349 440.078C174.985 439.677 174.467 439.476 173.795 439.476C173.03 439.476 172.428 439.714 171.989 440.19C171.551 440.657 171.331 441.305 171.331 442.136V446H170.337V441.828C170.337 441.063 170.151 440.479 169.777 440.078C169.413 439.677 168.891 439.476 168.209 439.476C167.453 439.476 166.851 439.714 166.403 440.19C165.965 440.657 165.745 441.305 165.745 442.136V446H164.751V438.636H165.703V439.98C165.965 439.532 166.329 439.187 166.795 438.944C167.262 438.701 167.799 438.58 168.405 438.58C169.021 438.58 169.553 438.711 170.001 438.972C170.459 439.233 170.799 439.621 171.023 440.134C171.294 439.649 171.681 439.271 172.185 439C172.699 438.72 173.282 438.58 173.935 438.58ZM182.175 438.58C183.136 438.58 183.874 438.823 184.387 439.308C184.9 439.784 185.157 440.493 185.157 441.436V446H184.205V444.852C183.981 445.235 183.65 445.533 183.211 445.748C182.782 445.963 182.268 446.07 181.671 446.07C180.85 446.07 180.196 445.874 179.711 445.482C179.226 445.09 178.983 444.572 178.983 443.928C178.983 443.303 179.207 442.799 179.655 442.416C180.112 442.033 180.836 441.842 181.825 441.842H184.163V441.394C184.163 440.759 183.986 440.279 183.631 439.952C183.276 439.616 182.758 439.448 182.077 439.448C181.61 439.448 181.162 439.527 180.733 439.686C180.304 439.835 179.935 440.045 179.627 440.316L179.179 439.574C179.552 439.257 180 439.014 180.523 438.846C181.046 438.669 181.596 438.58 182.175 438.58ZM181.825 445.286C182.385 445.286 182.866 445.16 183.267 444.908C183.668 444.647 183.967 444.273 184.163 443.788V442.584H181.853C180.593 442.584 179.963 443.023 179.963 443.9C179.963 444.329 180.126 444.67 180.453 444.922C180.78 445.165 181.237 445.286 181.825 445.286ZM187.857 438.636H188.851V446H187.857V438.636ZM188.361 437.026C188.155 437.026 187.983 436.956 187.843 436.816C187.703 436.676 187.633 436.508 187.633 436.312C187.633 436.125 187.703 435.962 187.843 435.822C187.983 435.682 188.155 435.612 188.361 435.612C188.566 435.612 188.739 435.682 188.879 435.822C189.019 435.953 189.089 436.111 189.089 436.298C189.089 436.503 189.019 436.676 188.879 436.816C188.739 436.956 188.566 437.026 188.361 437.026ZM191.616 435.612H192.61V446H191.616V435.612Z" fill="white"/>
<rect x="112" y="511" width="1056" height="70" rx="35" stroke="white" stroke-width="2"/>
<path d="M157.298 551.084C156.57 551.084 155.87 550.967 155.198 550.734C154.535 550.501 154.022 550.193 153.658 549.81L154.064 549.012C154.419 549.367 154.89 549.656 155.478 549.88C156.066 550.095 156.673 550.202 157.298 550.202C158.175 550.202 158.833 550.043 159.272 549.726C159.711 549.399 159.93 548.979 159.93 548.466C159.93 548.074 159.809 547.761 159.566 547.528C159.333 547.295 159.043 547.117 158.698 546.996C158.353 546.865 157.872 546.725 157.256 546.576C156.519 546.389 155.931 546.212 155.492 546.044C155.053 545.867 154.675 545.601 154.358 545.246C154.05 544.891 153.896 544.411 153.896 543.804C153.896 543.309 154.027 542.861 154.288 542.46C154.549 542.049 154.951 541.723 155.492 541.48C156.033 541.237 156.705 541.116 157.508 541.116C158.068 541.116 158.614 541.195 159.146 541.354C159.687 541.503 160.154 541.713 160.546 541.984L160.196 542.81C159.785 542.539 159.347 542.339 158.88 542.208C158.413 542.068 157.956 541.998 157.508 541.998C156.649 541.998 156.001 542.166 155.562 542.502C155.133 542.829 154.918 543.253 154.918 543.776C154.918 544.168 155.035 544.485 155.268 544.728C155.511 544.961 155.809 545.143 156.164 545.274C156.528 545.395 157.013 545.531 157.62 545.68C158.339 545.857 158.917 546.035 159.356 546.212C159.804 546.38 160.182 546.641 160.49 546.996C160.798 547.341 160.952 547.813 160.952 548.41C160.952 548.905 160.817 549.357 160.546 549.768C160.285 550.169 159.879 550.491 159.328 550.734C158.777 550.967 158.101 551.084 157.298 551.084ZM169.635 543.636V551H168.683V549.656C168.422 550.104 168.063 550.454 167.605 550.706C167.148 550.949 166.625 551.07 166.037 551.07C165.076 551.07 164.315 550.804 163.755 550.272C163.205 549.731 162.929 548.942 162.929 547.906V543.636H163.923V547.808C163.923 548.583 164.115 549.171 164.497 549.572C164.88 549.973 165.426 550.174 166.135 550.174C166.91 550.174 167.521 549.941 167.969 549.474C168.417 548.998 168.641 548.34 168.641 547.5V543.636H169.635ZM176.213 543.58C176.904 543.58 177.529 543.739 178.089 544.056C178.649 544.364 179.088 544.803 179.405 545.372C179.723 545.941 179.881 546.59 179.881 547.318C179.881 548.046 179.723 548.695 179.405 549.264C179.088 549.833 178.649 550.277 178.089 550.594C177.529 550.911 176.904 551.07 176.213 551.07C175.597 551.07 175.042 550.939 174.547 550.678C174.062 550.417 173.67 550.039 173.371 549.544V551H172.419V540.612H173.413V545.036C173.721 544.56 174.113 544.201 174.589 543.958C175.075 543.706 175.616 543.58 176.213 543.58ZM176.143 550.188C176.657 550.188 177.123 550.071 177.543 549.838C177.963 549.595 178.29 549.255 178.523 548.816C178.766 548.377 178.887 547.878 178.887 547.318C178.887 546.758 178.766 546.259 178.523 545.82C178.29 545.381 177.963 545.045 177.543 544.812C177.123 544.569 176.657 544.448 176.143 544.448C175.621 544.448 175.149 544.569 174.729 544.812C174.319 545.045 173.992 545.381 173.749 545.82C173.516 546.259 173.399 546.758 173.399 547.318C173.399 547.878 173.516 548.377 173.749 548.816C173.992 549.255 174.319 549.595 174.729 549.838C175.149 550.071 175.621 550.188 176.143 550.188ZM180.815 553.786C180.507 553.786 180.218 553.744 179.947 553.66C179.667 553.585 179.439 553.469 179.261 553.31L179.611 552.554C179.901 552.806 180.283 552.932 180.759 552.932C181.151 552.932 181.45 552.815 181.655 552.582C181.87 552.349 181.977 552.003 181.977 551.546V543.636H182.971V551.546C182.971 552.237 182.785 552.783 182.411 553.184C182.038 553.585 181.506 553.786 180.815 553.786ZM182.481 542.012C182.276 542.012 182.103 541.942 181.963 541.802C181.823 541.662 181.753 541.494 181.753 541.298C181.753 541.111 181.823 540.948 181.963 540.808C182.103 540.668 182.276 540.598 182.481 540.598C182.687 540.598 182.859 540.668 182.999 540.808C183.139 540.939 183.209 541.097 183.209 541.284C183.209 541.489 183.139 541.662 182.999 541.802C182.859 541.942 182.687 542.012 182.481 542.012ZM192.161 547.626H186.001C186.057 548.391 186.351 549.012 186.883 549.488C187.415 549.955 188.087 550.188 188.899 550.188C189.357 550.188 189.777 550.109 190.159 549.95C190.542 549.782 190.873 549.539 191.153 549.222L191.713 549.866C191.387 550.258 190.976 550.557 190.481 550.762C189.996 550.967 189.459 551.07 188.871 551.07C188.115 551.07 187.443 550.911 186.855 550.594C186.277 550.267 185.824 549.819 185.497 549.25C185.171 548.681 185.007 548.037 185.007 547.318C185.007 546.599 185.161 545.955 185.469 545.386C185.787 544.817 186.216 544.373 186.757 544.056C187.308 543.739 187.924 543.58 188.605 543.58C189.287 543.58 189.898 543.739 190.439 544.056C190.981 544.373 191.405 544.817 191.713 545.386C192.021 545.946 192.175 546.59 192.175 547.318L192.161 547.626ZM188.605 544.434C187.896 544.434 187.299 544.663 186.813 545.12C186.337 545.568 186.067 546.156 186.001 546.884H191.223C191.158 546.156 190.883 545.568 190.397 545.12C189.921 544.663 189.324 544.434 188.605 544.434ZM197.251 551.07C196.523 551.07 195.869 550.911 195.291 550.594C194.721 550.277 194.273 549.833 193.947 549.264C193.62 548.685 193.457 548.037 193.457 547.318C193.457 546.599 193.62 545.955 193.947 545.386C194.273 544.817 194.721 544.373 195.291 544.056C195.869 543.739 196.523 543.58 197.251 543.58C197.885 543.58 198.45 543.706 198.945 543.958C199.449 544.201 199.845 544.56 200.135 545.036L199.393 545.54C199.15 545.176 198.842 544.905 198.469 544.728C198.095 544.541 197.689 544.448 197.251 544.448C196.719 544.448 196.238 544.569 195.809 544.812C195.389 545.045 195.057 545.381 194.815 545.82C194.581 546.259 194.465 546.758 194.465 547.318C194.465 547.887 194.581 548.391 194.815 548.83C195.057 549.259 195.389 549.595 195.809 549.838C196.238 550.071 196.719 550.188 197.251 550.188C197.689 550.188 198.095 550.099 198.469 549.922C198.842 549.745 199.15 549.474 199.393 549.11L200.135 549.614C199.845 550.09 199.449 550.454 198.945 550.706C198.441 550.949 197.876 551.07 197.251 551.07ZM206.047 550.552C205.861 550.72 205.627 550.851 205.347 550.944C205.077 551.028 204.792 551.07 204.493 551.07C203.803 551.07 203.271 550.883 202.897 550.51C202.524 550.137 202.337 549.609 202.337 548.928V544.476H201.021V543.636H202.337V542.026H203.331V543.636H205.571V544.476H203.331V548.872C203.331 549.311 203.439 549.647 203.653 549.88C203.877 550.104 204.195 550.216 204.605 550.216C204.811 550.216 205.007 550.183 205.193 550.118C205.389 550.053 205.557 549.959 205.697 549.838L206.047 550.552Z" fill="white"/>
<rect x="111" y="616" width="1056" height="208" rx="39" stroke="white" stroke-width="2"/>
<path d="M155.5 647.096H152.056V646.2H159.98V647.096H156.536V656H155.5V647.096ZM167.071 652.626H160.911C160.967 653.391 161.261 654.012 161.793 654.488C162.325 654.955 162.997 655.188 163.809 655.188C164.267 655.188 164.687 655.109 165.069 654.95C165.452 654.782 165.783 654.539 166.063 654.222L166.623 654.866C166.297 655.258 165.886 655.557 165.391 655.762C164.906 655.967 164.369 656.07 163.781 656.07C163.025 656.07 162.353 655.911 161.765 655.594C161.187 655.267 160.734 654.819 160.407 654.25C160.081 653.681 159.917 653.037 159.917 652.318C159.917 651.599 160.071 650.955 160.379 650.386C160.697 649.817 161.126 649.373 161.667 649.056C162.218 648.739 162.834 648.58 163.515 648.58C164.197 648.58 164.808 648.739 165.349 649.056C165.891 649.373 166.315 649.817 166.623 650.386C166.931 650.946 167.085 651.59 167.085 652.318L167.071 652.626ZM163.515 649.434C162.806 649.434 162.209 649.663 161.723 650.12C161.247 650.568 160.977 651.156 160.911 651.884H166.133C166.068 651.156 165.793 650.568 165.307 650.12C164.831 649.663 164.234 649.434 163.515 649.434ZM169.109 645.612H170.103V656H169.109V645.612ZM172.868 645.612H173.862V656H172.868V645.612ZM184.45 656.084C183.181 656.084 182.192 655.72 181.482 654.992C180.773 654.264 180.418 653.205 180.418 651.814V646.2H181.454V651.772C181.454 652.911 181.711 653.76 182.224 654.32C182.738 654.88 183.48 655.16 184.45 655.16C185.43 655.16 186.177 654.88 186.69 654.32C187.204 653.76 187.46 652.911 187.46 651.772V646.2H188.468V651.814C188.468 653.205 188.114 654.264 187.404 654.992C186.704 655.72 185.72 656.084 184.45 656.084ZM193.354 656.07C192.757 656.07 192.183 655.986 191.632 655.818C191.091 655.641 190.666 655.421 190.358 655.16L190.806 654.376C191.114 654.619 191.501 654.819 191.968 654.978C192.435 655.127 192.92 655.202 193.424 655.202C194.096 655.202 194.591 655.099 194.908 654.894C195.235 654.679 195.398 654.381 195.398 653.998C195.398 653.727 195.309 653.517 195.132 653.368C194.955 653.209 194.731 653.093 194.46 653.018C194.189 652.934 193.83 652.855 193.382 652.78C192.785 652.668 192.304 652.556 191.94 652.444C191.576 652.323 191.263 652.122 191.002 651.842C190.75 651.562 190.624 651.175 190.624 650.68C190.624 650.064 190.881 649.56 191.394 649.168C191.907 648.776 192.621 648.58 193.536 648.58C194.012 648.58 194.488 648.645 194.964 648.776C195.44 648.897 195.832 649.061 196.14 649.266L195.706 650.064C195.099 649.644 194.376 649.434 193.536 649.434C192.901 649.434 192.421 649.546 192.094 649.77C191.777 649.994 191.618 650.288 191.618 650.652C191.618 650.932 191.707 651.156 191.884 651.324C192.071 651.492 192.299 651.618 192.57 651.702C192.841 651.777 193.214 651.856 193.69 651.94C194.278 652.052 194.749 652.164 195.104 652.276C195.459 652.388 195.762 652.579 196.014 652.85C196.266 653.121 196.392 653.494 196.392 653.97C196.392 654.614 196.121 655.127 195.58 655.51C195.048 655.883 194.306 656.07 193.354 656.07ZM204.806 656.084C204.078 656.084 203.378 655.967 202.706 655.734C202.043 655.501 201.53 655.193 201.166 654.81L201.572 654.012C201.926 654.367 202.398 654.656 202.986 654.88C203.574 655.095 204.18 655.202 204.806 655.202C205.683 655.202 206.341 655.043 206.78 654.726C207.218 654.399 207.438 653.979 207.438 653.466C207.438 653.074 207.316 652.761 207.074 652.528C206.84 652.295 206.551 652.117 206.206 651.996C205.86 651.865 205.38 651.725 204.764 651.576C204.026 651.389 203.438 651.212 203 651.044C202.561 650.867 202.183 650.601 201.866 650.246C201.558 649.891 201.404 649.411 201.404 648.804C201.404 648.309 201.534 647.861 201.796 647.46C202.057 647.049 202.458 646.723 203 646.48C203.541 646.237 204.213 646.116 205.016 646.116C205.576 646.116 206.122 646.195 206.654 646.354C207.195 646.503 207.662 646.713 208.054 646.984L207.704 647.81C207.293 647.539 206.854 647.339 206.388 647.208C205.921 647.068 205.464 646.998 205.016 646.998C204.157 646.998 203.508 647.166 203.07 647.502C202.64 647.829 202.426 648.253 202.426 648.776C202.426 649.168 202.542 649.485 202.776 649.728C203.018 649.961 203.317 650.143 203.672 650.274C204.036 650.395 204.521 650.531 205.128 650.68C205.846 650.857 206.425 651.035 206.864 651.212C207.312 651.38 207.69 651.641 207.998 651.996C208.306 652.341 208.46 652.813 208.46 653.41C208.46 653.905 208.324 654.357 208.054 654.768C207.792 655.169 207.386 655.491 206.836 655.734C206.285 655.967 205.608 656.084 204.806 656.084ZM213.517 656.07C212.808 656.07 212.168 655.911 211.599 655.594C211.03 655.267 210.582 654.819 210.255 654.25C209.928 653.681 209.765 653.037 209.765 652.318C209.765 651.599 209.928 650.955 210.255 650.386C210.582 649.817 211.03 649.373 211.599 649.056C212.168 648.739 212.808 648.58 213.517 648.58C214.226 648.58 214.866 648.739 215.435 649.056C216.004 649.373 216.448 649.817 216.765 650.386C217.092 650.955 217.255 651.599 217.255 652.318C217.255 653.037 217.092 653.681 216.765 654.25C216.448 654.819 216.004 655.267 215.435 655.594C214.866 655.911 214.226 656.07 213.517 656.07ZM213.517 655.188C214.04 655.188 214.506 655.071 214.917 654.838C215.337 654.595 215.664 654.255 215.897 653.816C216.13 653.377 216.247 652.878 216.247 652.318C216.247 651.758 216.13 651.259 215.897 650.82C215.664 650.381 215.337 650.045 214.917 649.812C214.506 649.569 214.04 649.448 213.517 649.448C212.994 649.448 212.523 649.569 212.103 649.812C211.692 650.045 211.366 650.381 211.123 650.82C210.89 651.259 210.773 651.758 210.773 652.318C210.773 652.878 210.89 653.377 211.123 653.816C211.366 654.255 211.692 654.595 212.103 654.838C212.523 655.071 212.994 655.188 213.517 655.188ZM228.468 648.58C229.392 648.58 230.116 648.846 230.638 649.378C231.17 649.91 231.436 650.694 231.436 651.73V656H230.442V651.828C230.442 651.063 230.256 650.479 229.882 650.078C229.518 649.677 229 649.476 228.328 649.476C227.563 649.476 226.961 649.714 226.522 650.19C226.084 650.657 225.864 651.305 225.864 652.136V656H224.87V651.828C224.87 651.063 224.684 650.479 224.31 650.078C223.946 649.677 223.424 649.476 222.742 649.476C221.986 649.476 221.384 649.714 220.936 650.19C220.498 650.657 220.278 651.305 220.278 652.136V656H219.284V648.636H220.236V649.98C220.498 649.532 220.862 649.187 221.328 648.944C221.795 648.701 222.332 648.58 222.938 648.58C223.554 648.58 224.086 648.711 224.534 648.972C224.992 649.233 225.332 649.621 225.556 650.134C225.827 649.649 226.214 649.271 226.718 649C227.232 648.72 227.815 648.58 228.468 648.58ZM240.571 652.626H234.411C234.467 653.391 234.761 654.012 235.293 654.488C235.825 654.955 236.497 655.188 237.309 655.188C237.767 655.188 238.187 655.109 238.569 654.95C238.952 654.782 239.283 654.539 239.563 654.222L240.123 654.866C239.797 655.258 239.386 655.557 238.891 655.762C238.406 655.967 237.869 656.07 237.281 656.07C236.525 656.07 235.853 655.911 235.265 655.594C234.687 655.267 234.234 654.819 233.907 654.25C233.581 653.681 233.417 653.037 233.417 652.318C233.417 651.599 233.571 650.955 233.879 650.386C234.197 649.817 234.626 649.373 235.167 649.056C235.718 648.739 236.334 648.58 237.015 648.58C237.697 648.58 238.308 648.739 238.849 649.056C239.391 649.373 239.815 649.817 240.123 650.386C240.431 650.946 240.585 651.59 240.585 652.318L240.571 652.626ZM237.015 649.434C236.306 649.434 235.709 649.663 235.223 650.12C234.747 650.568 234.477 651.156 234.411 651.884H239.633C239.568 651.156 239.293 650.568 238.807 650.12C238.331 649.663 237.734 649.434 237.015 649.434ZM246.487 655.552C246.3 655.72 246.067 655.851 245.787 655.944C245.516 656.028 245.231 656.07 244.933 656.07C244.242 656.07 243.71 655.883 243.337 655.51C242.963 655.137 242.777 654.609 242.777 653.928V649.476H241.461V648.636H242.777V647.026H243.771V648.636H246.011V649.476H243.771V653.872C243.771 654.311 243.878 654.647 244.093 654.88C244.317 655.104 244.634 655.216 245.045 655.216C245.25 655.216 245.446 655.183 245.633 655.118C245.829 655.053 245.997 654.959 246.137 654.838L246.487 655.552ZM252.048 648.58C252.972 648.58 253.705 648.851 254.246 649.392C254.797 649.924 255.072 650.703 255.072 651.73V656H254.078V651.828C254.078 651.063 253.887 650.479 253.504 650.078C253.121 649.677 252.575 649.476 251.866 649.476C251.073 649.476 250.443 649.714 249.976 650.19C249.519 650.657 249.29 651.305 249.29 652.136V656H248.296V645.612H249.29V649.924C249.561 649.495 249.934 649.163 250.41 648.93C250.886 648.697 251.432 648.58 252.048 648.58ZM257.771 648.636H258.765V656H257.771V648.636ZM258.275 647.026C258.069 647.026 257.897 646.956 257.757 646.816C257.617 646.676 257.547 646.508 257.547 646.312C257.547 646.125 257.617 645.962 257.757 645.822C257.897 645.682 258.069 645.612 258.275 645.612C258.48 645.612 258.653 645.682 258.793 645.822C258.933 645.953 259.003 646.111 259.003 646.298C259.003 646.503 258.933 646.676 258.793 646.816C258.653 646.956 258.48 647.026 258.275 647.026ZM265.283 648.58C266.207 648.58 266.939 648.851 267.481 649.392C268.031 649.924 268.307 650.703 268.307 651.73V656H267.313V651.828C267.313 651.063 267.121 650.479 266.739 650.078C266.356 649.677 265.81 649.476 265.101 649.476C264.307 649.476 263.677 649.714 263.211 650.19C262.753 650.657 262.525 651.305 262.525 652.136V656H261.531V648.636H262.483V649.994C262.753 649.546 263.127 649.201 263.603 648.958C264.088 648.706 264.648 648.58 265.283 648.58ZM277.85 648.636V655.104C277.85 656.355 277.542 657.279 276.926 657.876C276.32 658.483 275.4 658.786 274.168 658.786C273.487 658.786 272.838 658.683 272.222 658.478C271.616 658.282 271.121 658.007 270.738 657.652L271.242 656.896C271.597 657.213 272.026 657.461 272.53 657.638C273.044 657.815 273.58 657.904 274.14 657.904C275.074 657.904 275.76 657.685 276.198 657.246C276.637 656.817 276.856 656.145 276.856 655.23V654.292C276.548 654.759 276.142 655.113 275.638 655.356C275.144 655.599 274.593 655.72 273.986 655.72C273.296 655.72 272.666 655.571 272.096 655.272C271.536 654.964 271.093 654.539 270.766 653.998C270.449 653.447 270.29 652.827 270.29 652.136C270.29 651.445 270.449 650.829 270.766 650.288C271.093 649.747 271.536 649.327 272.096 649.028C272.656 648.729 273.286 648.58 273.986 648.58C274.612 648.58 275.176 648.706 275.68 648.958C276.184 649.21 276.59 649.574 276.898 650.05V648.636H277.85ZM274.084 654.838C274.616 654.838 275.097 654.726 275.526 654.502C275.956 654.269 276.287 653.947 276.52 653.536C276.763 653.125 276.884 652.659 276.884 652.136C276.884 651.613 276.763 651.151 276.52 650.75C276.287 650.339 275.956 650.022 275.526 649.798C275.106 649.565 274.626 649.448 274.084 649.448C273.552 649.448 273.072 649.56 272.642 649.784C272.222 650.008 271.891 650.325 271.648 650.736C271.415 651.147 271.298 651.613 271.298 652.136C271.298 652.659 271.415 653.125 271.648 653.536C271.891 653.947 272.222 654.269 272.642 654.502C273.072 654.726 273.552 654.838 274.084 654.838ZM280.728 656.07C280.523 656.07 280.345 655.995 280.196 655.846C280.056 655.697 279.986 655.515 279.986 655.3C279.986 655.085 280.056 654.908 280.196 654.768C280.345 654.619 280.523 654.544 280.728 654.544C280.933 654.544 281.111 654.619 281.26 654.768C281.409 654.908 281.484 655.085 281.484 655.3C281.484 655.515 281.409 655.697 281.26 655.846C281.111 655.995 280.933 656.07 280.728 656.07ZM283.695 656.07C283.49 656.07 283.312 655.995 283.163 655.846C283.023 655.697 282.953 655.515 282.953 655.3C282.953 655.085 283.023 654.908 283.163 654.768C283.312 654.619 283.49 654.544 283.695 654.544C283.9 654.544 284.078 654.619 284.227 654.768C284.376 654.908 284.451 655.085 284.451 655.3C284.451 655.515 284.376 655.697 284.227 655.846C284.078 655.995 283.9 656.07 283.695 656.07ZM286.662 656.07C286.456 656.07 286.279 655.995 286.13 655.846C285.99 655.697 285.92 655.515 285.92 655.3C285.92 655.085 285.99 654.908 286.13 654.768C286.279 654.619 286.456 654.544 286.662 654.544C286.867 654.544 287.044 654.619 287.194 654.768C287.343 654.908 287.418 655.085 287.418 655.3C287.418 655.515 287.343 655.697 287.194 655.846C287.044 655.995 286.867 656.07 286.662 656.07Z" fill="white"/>
<rect x="649" y="406" width="522" height="70" rx="35" stroke="white" stroke-width="2"/>
<path d="M695.264 436.2C696.515 436.2 697.495 436.499 698.204 437.096C698.913 437.693 699.268 438.515 699.268 439.56C699.268 440.605 698.913 441.427 698.204 442.024C697.495 442.612 696.515 442.906 695.264 442.906H692.632V446H691.596V436.2H695.264ZM695.236 441.996C696.207 441.996 696.949 441.786 697.462 441.366C697.975 440.937 698.232 440.335 698.232 439.56C698.232 438.767 697.975 438.16 697.462 437.74C696.949 437.311 696.207 437.096 695.236 437.096H692.632V441.996H695.236ZM705.187 438.58C706.111 438.58 706.843 438.851 707.385 439.392C707.935 439.924 708.211 440.703 708.211 441.73V446H707.217V441.828C707.217 441.063 707.025 440.479 706.643 440.078C706.26 439.677 705.714 439.476 705.005 439.476C704.211 439.476 703.581 439.714 703.115 440.19C702.657 440.657 702.429 441.305 702.429 442.136V446H701.435V435.612H702.429V439.924C702.699 439.495 703.073 439.163 703.549 438.93C704.025 438.697 704.571 438.58 705.187 438.58ZM713.947 446.07C713.237 446.07 712.598 445.911 712.029 445.594C711.459 445.267 711.011 444.819 710.685 444.25C710.358 443.681 710.195 443.037 710.195 442.318C710.195 441.599 710.358 440.955 710.685 440.386C711.011 439.817 711.459 439.373 712.029 439.056C712.598 438.739 713.237 438.58 713.947 438.58C714.656 438.58 715.295 438.739 715.865 439.056C716.434 439.373 716.877 439.817 717.195 440.386C717.521 440.955 717.685 441.599 717.685 442.318C717.685 443.037 717.521 443.681 717.195 444.25C716.877 444.819 716.434 445.267 715.865 445.594C715.295 445.911 714.656 446.07 713.947 446.07ZM713.947 445.188C714.469 445.188 714.936 445.071 715.347 444.838C715.767 444.595 716.093 444.255 716.327 443.816C716.56 443.377 716.677 442.878 716.677 442.318C716.677 441.758 716.56 441.259 716.327 440.82C716.093 440.381 715.767 440.045 715.347 439.812C714.936 439.569 714.469 439.448 713.947 439.448C713.424 439.448 712.953 439.569 712.533 439.812C712.122 440.045 711.795 440.381 711.553 440.82C711.319 441.259 711.203 441.758 711.203 442.318C711.203 442.878 711.319 443.377 711.553 443.816C711.795 444.255 712.122 444.595 712.533 444.838C712.953 445.071 713.424 445.188 713.947 445.188ZM723.466 438.58C724.39 438.58 725.123 438.851 725.664 439.392C726.215 439.924 726.49 440.703 726.49 441.73V446H725.496V441.828C725.496 441.063 725.305 440.479 724.922 440.078C724.539 439.677 723.993 439.476 723.284 439.476C722.491 439.476 721.861 439.714 721.394 440.19C720.937 440.657 720.708 441.305 720.708 442.136V446H719.714V438.636H720.666V439.994C720.937 439.546 721.31 439.201 721.786 438.958C722.271 438.706 722.831 438.58 723.466 438.58ZM735.628 442.626H729.468C729.524 443.391 729.818 444.012 730.35 444.488C730.882 444.955 731.554 445.188 732.366 445.188C732.823 445.188 733.243 445.109 733.626 444.95C734.009 444.782 734.34 444.539 734.62 444.222L735.18 444.866C734.853 445.258 734.443 445.557 733.948 445.762C733.463 445.967 732.926 446.07 732.338 446.07C731.582 446.07 730.91 445.911 730.322 445.594C729.743 445.267 729.291 444.819 728.964 444.25C728.637 443.681 728.474 443.037 728.474 442.318C728.474 441.599 728.628 440.955 728.936 440.386C729.253 439.817 729.683 439.373 730.224 439.056C730.775 438.739 731.391 438.58 732.072 438.58C732.753 438.58 733.365 438.739 733.906 439.056C734.447 439.373 734.872 439.817 735.18 440.386C735.488 440.946 735.642 441.59 735.642 442.318L735.628 442.626ZM732.072 439.434C731.363 439.434 730.765 439.663 730.28 440.12C729.804 440.568 729.533 441.156 729.468 441.884H734.69C734.625 441.156 734.349 440.568 733.864 440.12C733.388 439.663 732.791 439.434 732.072 439.434ZM749.729 436.2V446H748.875L742.575 438.048V446H741.539V436.2H742.393L748.707 444.152V436.2H749.729ZM759.354 438.636V446H758.402V444.656C758.141 445.104 757.781 445.454 757.324 445.706C756.867 445.949 756.344 446.07 755.756 446.07C754.795 446.07 754.034 445.804 753.474 445.272C752.923 444.731 752.648 443.942 752.648 442.906V438.636H753.642V442.808C753.642 443.583 753.833 444.171 754.216 444.572C754.599 444.973 755.145 445.174 755.854 445.174C756.629 445.174 757.24 444.941 757.688 444.474C758.136 443.998 758.36 443.34 758.36 442.5V438.636H759.354ZM771.322 438.58C772.246 438.58 772.969 438.846 773.492 439.378C774.024 439.91 774.29 440.694 774.29 441.73V446H773.296V441.828C773.296 441.063 773.109 440.479 772.736 440.078C772.372 439.677 771.854 439.476 771.182 439.476C770.417 439.476 769.815 439.714 769.376 440.19C768.937 440.657 768.718 441.305 768.718 442.136V446H767.724V441.828C767.724 441.063 767.537 440.479 767.164 440.078C766.8 439.677 766.277 439.476 765.596 439.476C764.84 439.476 764.238 439.714 763.79 440.19C763.351 440.657 763.132 441.305 763.132 442.136V446H762.138V438.636H763.09V439.98C763.351 439.532 763.715 439.187 764.182 438.944C764.649 438.701 765.185 438.58 765.792 438.58C766.408 438.58 766.94 438.711 767.388 438.972C767.845 439.233 768.186 439.621 768.41 440.134C768.681 439.649 769.068 439.271 769.572 439C770.085 438.72 770.669 438.58 771.322 438.58ZM780.78 438.58C781.47 438.58 782.096 438.739 782.656 439.056C783.216 439.364 783.654 439.803 783.972 440.372C784.289 440.941 784.448 441.59 784.448 442.318C784.448 443.046 784.289 443.695 783.972 444.264C783.654 444.833 783.216 445.277 782.656 445.594C782.096 445.911 781.47 446.07 780.78 446.07C780.164 446.07 779.608 445.939 779.114 445.678C778.628 445.417 778.236 445.039 777.938 444.544V446H776.986V435.612H777.98V440.036C778.288 439.56 778.68 439.201 779.156 438.958C779.641 438.706 780.182 438.58 780.78 438.58ZM780.71 445.188C781.223 445.188 781.69 445.071 782.11 444.838C782.53 444.595 782.856 444.255 783.09 443.816C783.332 443.377 783.454 442.878 783.454 442.318C783.454 441.758 783.332 441.259 783.09 440.82C782.856 440.381 782.53 440.045 782.11 439.812C781.69 439.569 781.223 439.448 780.71 439.448C780.187 439.448 779.716 439.569 779.296 439.812C778.885 440.045 778.558 440.381 778.316 440.82C778.082 441.259 777.966 441.758 777.966 442.318C777.966 442.878 778.082 443.377 778.316 443.816C778.558 444.255 778.885 444.595 779.296 444.838C779.716 445.071 780.187 445.188 780.71 445.188ZM792.886 442.626H786.726C786.782 443.391 787.076 444.012 787.608 444.488C788.14 444.955 788.812 445.188 789.624 445.188C790.081 445.188 790.501 445.109 790.884 444.95C791.267 444.782 791.598 444.539 791.878 444.222L792.438 444.866C792.111 445.258 791.701 445.557 791.206 445.762C790.721 445.967 790.184 446.07 789.596 446.07C788.84 446.07 788.168 445.911 787.58 445.594C787.001 445.267 786.549 444.819 786.222 444.25C785.895 443.681 785.732 443.037 785.732 442.318C785.732 441.599 785.886 440.955 786.194 440.386C786.511 439.817 786.941 439.373 787.482 439.056C788.033 438.739 788.649 438.58 789.33 438.58C790.011 438.58 790.623 438.739 791.164 439.056C791.705 439.373 792.13 439.817 792.438 440.386C792.746 440.946 792.9 441.59 792.9 442.318L792.886 442.626ZM789.33 439.434C788.621 439.434 788.023 439.663 787.538 440.12C787.062 440.568 786.791 441.156 786.726 441.884H791.948C791.883 441.156 791.607 440.568 791.122 440.12C790.646 439.663 790.049 439.434 789.33 439.434ZM795.875 440.078C796.108 439.583 796.454 439.21 796.911 438.958C797.378 438.706 797.952 438.58 798.633 438.58V439.546L798.395 439.532C797.62 439.532 797.014 439.77 796.575 440.246C796.136 440.722 795.917 441.389 795.917 442.248V446H794.923V438.636H795.875V440.078Z" fill="white"/>
<path d="M690.596 325.2H691.632V334.104H697.12V335H690.596V325.2ZM701.233 327.58C702.195 327.58 702.932 327.823 703.445 328.308C703.959 328.784 704.215 329.493 704.215 330.436V335H703.263V333.852C703.039 334.235 702.708 334.533 702.269 334.748C701.84 334.963 701.327 335.07 700.729 335.07C699.908 335.07 699.255 334.874 698.769 334.482C698.284 334.09 698.041 333.572 698.041 332.928C698.041 332.303 698.265 331.799 698.713 331.416C699.171 331.033 699.894 330.842 700.883 330.842H703.221V330.394C703.221 329.759 703.044 329.279 702.689 328.952C702.335 328.616 701.817 328.448 701.135 328.448C700.669 328.448 700.221 328.527 699.791 328.686C699.362 328.835 698.993 329.045 698.685 329.316L698.237 328.574C698.611 328.257 699.059 328.014 699.581 327.846C700.104 327.669 700.655 327.58 701.233 327.58ZM700.883 334.286C701.443 334.286 701.924 334.16 702.325 333.908C702.727 333.647 703.025 333.273 703.221 332.788V331.584H700.911C699.651 331.584 699.021 332.023 699.021 332.9C699.021 333.329 699.185 333.67 699.511 333.922C699.838 334.165 700.295 334.286 700.883 334.286ZM708.889 335.07C708.292 335.07 707.718 334.986 707.167 334.818C706.626 334.641 706.201 334.421 705.893 334.16L706.341 333.376C706.649 333.619 707.037 333.819 707.503 333.978C707.97 334.127 708.455 334.202 708.959 334.202C709.631 334.202 710.126 334.099 710.443 333.894C710.77 333.679 710.933 333.381 710.933 332.998C710.933 332.727 710.845 332.517 710.667 332.368C710.49 332.209 710.266 332.093 709.995 332.018C709.725 331.934 709.365 331.855 708.917 331.78C708.32 331.668 707.839 331.556 707.475 331.444C707.111 331.323 706.799 331.122 706.537 330.842C706.285 330.562 706.159 330.175 706.159 329.68C706.159 329.064 706.416 328.56 706.929 328.168C707.443 327.776 708.157 327.58 709.071 327.58C709.547 327.58 710.023 327.645 710.499 327.776C710.975 327.897 711.367 328.061 711.675 328.266L711.241 329.064C710.635 328.644 709.911 328.434 709.071 328.434C708.437 328.434 707.956 328.546 707.629 328.77C707.312 328.994 707.153 329.288 707.153 329.652C707.153 329.932 707.242 330.156 707.419 330.324C707.606 330.492 707.835 330.618 708.105 330.702C708.376 330.777 708.749 330.856 709.225 330.94C709.813 331.052 710.285 331.164 710.639 331.276C710.994 331.388 711.297 331.579 711.549 331.85C711.801 332.121 711.927 332.494 711.927 332.97C711.927 333.614 711.657 334.127 711.115 334.51C710.583 334.883 709.841 335.07 708.889 335.07ZM717.643 334.552C717.456 334.72 717.223 334.851 716.943 334.944C716.672 335.028 716.388 335.07 716.089 335.07C715.398 335.07 714.866 334.883 714.493 334.51C714.12 334.137 713.933 333.609 713.933 332.928V328.476H712.617V327.636H713.933V326.026H714.927V327.636H717.167V328.476H714.927V332.872C714.927 333.311 715.034 333.647 715.249 333.88C715.473 334.104 715.79 334.216 716.201 334.216C716.406 334.216 716.602 334.183 716.789 334.118C716.985 334.053 717.153 333.959 717.293 333.838L717.643 334.552ZM731.516 325.2V335H730.662L724.362 327.048V335H723.326V325.2H724.18L730.494 333.152V325.2H731.516ZM737.081 327.58C738.042 327.58 738.78 327.823 739.293 328.308C739.806 328.784 740.063 329.493 740.063 330.436V335H739.111V333.852C738.887 334.235 738.556 334.533 738.117 334.748C737.688 334.963 737.174 335.07 736.577 335.07C735.756 335.07 735.102 334.874 734.617 334.482C734.132 334.09 733.889 333.572 733.889 332.928C733.889 332.303 734.113 331.799 734.561 331.416C735.018 331.033 735.742 330.842 736.731 330.842H739.069V330.394C739.069 329.759 738.892 329.279 738.537 328.952C738.182 328.616 737.664 328.448 736.983 328.448C736.516 328.448 736.068 328.527 735.639 328.686C735.21 328.835 734.841 329.045 734.533 329.316L734.085 328.574C734.458 328.257 734.906 328.014 735.429 327.846C735.952 327.669 736.502 327.58 737.081 327.58ZM736.731 334.286C737.291 334.286 737.772 334.16 738.173 333.908C738.574 333.647 738.873 333.273 739.069 332.788V331.584H736.759C735.499 331.584 734.869 332.023 734.869 332.9C734.869 333.329 735.032 333.67 735.359 333.922C735.686 334.165 736.143 334.286 736.731 334.286ZM751.947 327.58C752.871 327.58 753.594 327.846 754.117 328.378C754.649 328.91 754.915 329.694 754.915 330.73V335H753.921V330.828C753.921 330.063 753.734 329.479 753.361 329.078C752.997 328.677 752.479 328.476 751.807 328.476C751.042 328.476 750.44 328.714 750.001 329.19C749.562 329.657 749.343 330.305 749.343 331.136V335H748.349V330.828C748.349 330.063 748.162 329.479 747.789 329.078C747.425 328.677 746.902 328.476 746.221 328.476C745.465 328.476 744.863 328.714 744.415 329.19C743.976 329.657 743.757 330.305 743.757 331.136V335H742.763V327.636H743.715V328.98C743.976 328.532 744.34 328.187 744.807 327.944C745.274 327.701 745.81 327.58 746.417 327.58C747.033 327.58 747.565 327.711 748.013 327.972C748.47 328.233 748.811 328.621 749.035 329.134C749.306 328.649 749.693 328.271 750.197 328C750.71 327.72 751.294 327.58 751.947 327.58ZM764.05 331.626H757.89C757.946 332.391 758.24 333.012 758.772 333.488C759.304 333.955 759.976 334.188 760.788 334.188C761.245 334.188 761.665 334.109 762.048 333.95C762.431 333.782 762.762 333.539 763.042 333.222L763.602 333.866C763.275 334.258 762.865 334.557 762.37 334.762C761.885 334.967 761.348 335.07 760.76 335.07C760.004 335.07 759.332 334.911 758.744 334.594C758.165 334.267 757.713 333.819 757.386 333.25C757.059 332.681 756.896 332.037 756.896 331.318C756.896 330.599 757.05 329.955 757.358 329.386C757.675 328.817 758.105 328.373 758.646 328.056C759.197 327.739 759.813 327.58 760.494 327.58C761.175 327.58 761.787 327.739 762.328 328.056C762.869 328.373 763.294 328.817 763.602 329.386C763.91 329.946 764.064 330.59 764.064 331.318L764.05 331.626ZM760.494 328.434C759.785 328.434 759.187 328.663 758.702 329.12C758.226 329.568 757.955 330.156 757.89 330.884H763.112C763.047 330.156 762.771 329.568 762.286 329.12C761.81 328.663 761.213 328.434 760.494 328.434Z" fill="white"/>
<rect x="533" y="876" width="214" height="48" rx="24" fill="url(#paint1_linear_13_72)"/>
<path d="M589.756 904.144C589.084 904.144 588.44 904.056 587.824 903.88C587.208 903.696 586.712 903.46 586.336 903.172L586.996 901.708C587.356 901.964 587.78 902.176 588.268 902.344C588.764 902.504 589.264 902.584 589.768 902.584C590.152 902.584 590.46 902.548 590.692 902.476C590.932 902.396 591.108 902.288 591.22 902.152C591.332 902.016 591.388 901.86 591.388 901.684C591.388 901.46 591.3 901.284 591.124 901.156C590.948 901.02 590.716 900.912 590.428 900.832C590.14 900.744 589.82 900.664 589.468 900.592C589.124 900.512 588.776 900.416 588.424 900.304C588.08 900.192 587.764 900.048 587.476 899.872C587.188 899.696 586.952 899.464 586.768 899.176C586.592 898.888 586.504 898.52 586.504 898.072C586.504 897.592 586.632 897.156 586.888 896.764C587.152 896.364 587.544 896.048 588.064 895.816C588.592 895.576 589.252 895.456 590.044 895.456C590.572 895.456 591.092 895.52 591.604 895.648C592.116 895.768 592.568 895.952 592.96 896.2L592.36 897.676C591.968 897.452 591.576 897.288 591.184 897.184C590.792 897.072 590.408 897.016 590.032 897.016C589.656 897.016 589.348 897.06 589.108 897.148C588.868 897.236 588.696 897.352 588.592 897.496C588.488 897.632 588.436 897.792 588.436 897.976C588.436 898.192 588.524 898.368 588.7 898.504C588.876 898.632 589.108 898.736 589.396 898.816C589.684 898.896 590 898.976 590.344 899.056C590.696 899.136 591.044 899.228 591.388 899.332C591.74 899.436 592.06 899.576 592.348 899.752C592.636 899.928 592.868 900.16 593.044 900.448C593.228 900.736 593.32 901.1 593.32 901.54C593.32 902.012 593.188 902.444 592.924 902.836C592.66 903.228 592.264 903.544 591.736 903.784C591.216 904.024 590.556 904.144 589.756 904.144ZM596.436 898.984H600.48V900.496H596.436V898.984ZM596.58 902.44H601.152V904H594.648V895.6H600.996V897.16H596.58V902.44ZM602.699 904V895.6H604.307L609.263 901.648H608.483V895.6H610.403V904H608.807L603.839 897.952H604.619V904H602.699ZM612.391 904V895.6H616.207C617.119 895.6 617.923 895.776 618.619 896.128C619.315 896.472 619.859 896.956 620.251 897.58C620.643 898.204 620.839 898.944 620.839 899.8C620.839 900.648 620.643 901.388 620.251 902.02C619.859 902.644 619.315 903.132 618.619 903.484C617.923 903.828 617.119 904 616.207 904H612.391ZM614.335 902.404H616.111C616.671 902.404 617.155 902.3 617.563 902.092C617.979 901.876 618.299 901.572 618.523 901.18C618.755 900.788 618.871 900.328 618.871 899.8C618.871 899.264 618.755 898.804 618.523 898.42C618.299 898.028 617.979 897.728 617.563 897.52C617.155 897.304 616.671 897.196 616.111 897.196H614.335V902.404ZM627.443 904V897.184H624.755V895.6H632.075V897.184H629.387V904H627.443ZM637.084 904.144C636.42 904.144 635.804 904.036 635.236 903.82C634.676 903.604 634.188 903.3 633.772 902.908C633.364 902.516 633.044 902.056 632.812 901.528C632.588 901 632.476 900.424 632.476 899.8C632.476 899.176 632.588 898.6 632.812 898.072C633.044 897.544 633.368 897.084 633.784 896.692C634.2 896.3 634.688 895.996 635.248 895.78C635.808 895.564 636.416 895.456 637.072 895.456C637.736 895.456 638.344 895.564 638.896 895.78C639.456 895.996 639.94 896.3 640.348 896.692C640.764 897.084 641.088 897.544 641.32 898.072C641.552 898.592 641.668 899.168 641.668 899.8C641.668 900.424 641.552 901.004 641.32 901.54C641.088 902.068 640.764 902.528 640.348 902.92C639.94 903.304 639.456 903.604 638.896 903.82C638.344 904.036 637.74 904.144 637.084 904.144ZM637.072 902.488C637.448 902.488 637.792 902.424 638.104 902.296C638.424 902.168 638.704 901.984 638.944 901.744C639.184 901.504 639.368 901.22 639.496 900.892C639.632 900.564 639.7 900.2 639.7 899.8C639.7 899.4 639.632 899.036 639.496 898.708C639.368 898.38 639.184 898.096 638.944 897.856C638.712 897.616 638.436 897.432 638.116 897.304C637.796 897.176 637.448 897.112 637.072 897.112C636.696 897.112 636.348 897.176 636.028 897.304C635.716 897.432 635.44 897.616 635.2 897.856C634.96 898.096 634.772 898.38 634.636 898.708C634.508 899.036 634.444 899.4 634.444 899.8C634.444 900.192 634.508 900.556 634.636 900.892C634.772 901.22 634.956 901.504 635.188 901.744C635.428 901.984 635.708 902.168 636.028 902.296C636.348 902.424 636.696 902.488 637.072 902.488Z" fill="#343045"/>
<path d="M433 164H847" stroke="url(#paint2_linear_13_72)"/>
<defs>
<filter id="filter0_d_13_72" x="0" y="0" width="1283" height="1016" filterUnits="userSpaceOnUse" color-interpolation-filters="sRGB">
<feFlood flood-opacity="0" result="BackgroundImageFix"/>
<feColorMatrix in="SourceAlpha" type="matrix" values="0 0 0 0 0 0 0 0 0 0 0 0 0 0 0 0 0 0 127 0" result="hardAlpha"/>
<feOffset dy="4"/>
<feGaussianBlur stdDeviation="2"/>
<feComposite in2="hardAlpha" operator="out"/>
<feColorMatrix type="matrix" values="0 0 0 0 0 0 0 0 0 0 0 0 0 0 0 0 0 0 0.25 0"/>
<feBlend mode="normal" in2="BackgroundImageFix" result="effect1_dropShadow_13_72"/>
<feBlend mode="normal" in="SourceGraphic" in2="effect1_dropShadow_13_72" result="shape"/>
</filter>
<radialGradient id="paint0_radial_13_72" cx="0" cy="0" r="1" gradientUnits="userSpaceOnUse" gradientTransform="translate(641.5 504) rotate(90) scale(504 637.5)">
<stop stop-color="#403A5F"/>
<stop offset="1" stop-color="#211E2E"/>
</radialGradient>
<linearGradient id="paint1_linear_13_72" x1="533" y1="900" x2="747" y2="900" gradientUnits="userSpaceOnUse">
<stop stop-color="#8176AF"/>
<stop offset="1" stop-color="#C0B7E8"/>
</linearGradient>
<linearGradient id="paint2_linear_13_72" x1="847" y1="164.002" x2="433" y2="164" gradientUnits="userSpaceOnUse">
<stop stop-color="#343045"/>
<stop offset="0.348958" stop-color="#C0B7E8"/>
<stop offset="0.6875" stop-color="#8176AF"/>
<stop offset="1" stop-color="#343045"/>
</linearGradient>
</defs>
</svg>
