<svg width="6826" height="3028" viewBox="0 0 6826 3028" fill="none" xmlns="http://www.w3.org/2000/svg">
<path d="M1086.5 408.5C812.206 3.04352 5 5.49644 5 5.49644V56C5 56 741.891 112.983 956.5 476.5C1055.29 643.829 1043 977 1043 977L1258.5 853.497C1258.5 853.497 1272.06 682.794 1086.5 408.5Z" fill="#D9D9D9" stroke="white" stroke-width="10"/>
<path d="M1086.74 2619.79C812.386 3025.45 5 3023 5 3023V2972.47C5 2972.47 742.055 2915.46 956.712 2551.76C1055.52 2384.34 1043.23 2051 1043.23 2051L1258.78 2174.57C1258.78 2174.57 1272.34 2345.36 1086.74 2619.79Z" fill="#D9D9D9" stroke="white" stroke-width="10"/>
<path d="M2217.5 1582.5V1384C2217.5 1384 2410.06 1322.26 2526.5 1266.5C2653.17 1205.85 2835.5 1082.5 2835.5 1082.5V1884C2835.5 1884 2653.17 1760.65 2526.5 1700C2410.06 1644.24 2217.5 1582.5 2217.5 1582.5Z" fill="#D9D9D9" stroke="white" stroke-width="10"/>
<path d="M5739.69 408.004C6013.94 2.54742 6821 5.00035 6821 5.00035V55.5039C6821 55.5039 6084.24 112.487 5869.67 476.004C5770.9 643.333 5783.18 976.504 5783.18 976.504L5567.72 853C5567.72 853 5554.16 682.298 5739.69 408.004Z" fill="#D9D9D9" stroke="white" stroke-width="10"/>
<path d="M5739.45 2619.29C6013.76 3024.96 6821 3022.5 6821 3022.5V2971.97C6821 2971.97 6084.07 2914.96 5869.45 2551.26C5770.66 2383.84 5782.95 2050.5 5782.95 2050.5L5567.44 2174.07C5567.44 2174.07 5553.88 2344.86 5739.45 2619.29Z" fill="#D9D9D9" stroke="white" stroke-width="10"/>
<path d="M4608.89 1582V1383.5C4608.89 1383.5 4416.37 1321.76 4299.95 1266C4173.29 1205.35 3991 1082 3991 1082V1883.5C3991 1883.5 4173.29 1760.16 4299.95 1699.5C4416.37 1643.75 4608.89 1582 4608.89 1582Z" fill="#D9D9D9" stroke="white" stroke-width="10"/>
</svg>
