<svg width="306" height="260" viewBox="0 0 306 260" fill="none" xmlns="http://www.w3.org/2000/svg">
<path d="M41.5 1.5H150M157.5 1.5H193.5M197.5 1.5H209M214.5 1.5H221.5M226.5 1.5H230.5M235.5 1.5H238.5M244 1.5H247M252.5 1.5H255M261.5 1.5H263.5" stroke="#377E7A" stroke-width="3"/>
<path d="M245.5 249.5V248.5H255.5V249.5M245.5 249.5V250.5H255.5V249.5M245.5 249.5H255.5M146.5 243.5V255.5H260.5V243.5H241.5H146.5ZM146.5 258.5H260.5V259.5H146.5V258.5ZM241.5 244.5V254.5H259.5V244.5H241.5ZM242.5 245.5V253.5H258.5V245.5H242.5ZM243.5 252.5V246.5H257.5V252.5H243.5ZM244.5 247.5V251.5H256.5V247.5H244.5Z" stroke="#377E7A"/>
<path d="M38.5 231.5H257M38.5 6.5H267.5" stroke="#00FFE0"/>
<path d="M17.5 199.5V46C17.5 43 19.418 38.8359 22.5 35.5C25.8206 31.9059 29.5 29.5 33.5 29.5H273.5C276.5 29.5 281.09 32.3576 284.5 36C288.322 40.0817 290.5 46.5 290.5 49V199.5C290.5 201.5 288.171 207.712 284.5 211C281.18 213.974 275.5 215.5 273.5 215.5H33.5C30.5 215.5 26.7203 212.72 23.5 209.5C20.2797 206.28 17.5 202.5 17.5 199.5Z" fill="#00FFC2" fill-opacity="0.18" stroke="#00FFE0"/>
<path d="M28.012 6C28.012 6 28.0159 6.0001 23.512 6C19.0081 5.9999 15.7695 6.58989 12.012 8.5C10.1292 9.4571 9.08734 10.0932 7.512 11.5C5.64689 13.1656 4.64931 14.273 3.512 16.5C2.66927 18.1502 2.42295 19.1941 2.00809 21C1.74222 22.1573 1.52142 24 1.512 26C1.50258 28 1.512 28 1.512 28" stroke="#00FFE0" stroke-width="3"/>
<path d="M1.76172 204.748C1.76172 204.748 1.76181 204.744 1.76172 209.248C1.76162 213.752 2.35161 216.99 4.26172 220.748C5.21882 222.631 5.85488 223.672 7.26172 225.248C8.92733 227.113 10.0347 228.11 12.2617 229.248C13.9119 230.09 14.9559 230.337 16.7617 230.752C17.9191 231.018 19.7617 231.238 21.7617 231.248C23.7617 231.257 23.7617 231.248 23.7617 231.248" stroke="#00FFE0" stroke-width="3"/>
<path d="M277.75 231C277.75 231 277.746 231 282.25 231C286.754 231 289.992 230.41 293.75 228.5C295.632 227.543 296.674 226.907 298.25 225.5C300.115 223.834 301.112 222.727 302.25 220.5C303.092 218.85 303.339 217.806 303.754 216C304.019 214.843 304.24 213 304.25 211C304.259 209 304.25 209 304.25 209" stroke="#00FFE0" stroke-width="3"/>
<path d="M302 30.5042C302 30.5042 302 30.5081 302 26.0042C302 21.5003 301.41 18.2617 299.5 14.5042C298.543 12.6214 297.907 11.5795 296.5 10.0042C294.834 8.13908 293.727 7.1415 291.5 6.00419C289.85 5.16145 288.806 4.91514 287 4.50028C285.843 4.23441 284 4.01361 282 4.00419C280 3.99476 280 4.00419 280 4.00419" stroke="#00FFE0" stroke-width="3"/>
</svg>
