<svg width="672" height="439" viewBox="0 0 672 439" fill="none" xmlns="http://www.w3.org/2000/svg">
<path d="M319 1.5H311L308 7.5H63L23 47.5V194.5L39 204.5V230.5L23 241.5V390.5L63 430.5H608L648 390.5V240.5L632 230.5V203.5L648 192V47.5L608 7.5H365L362 1.5H354L353 0H319.5L319 1.5Z" fill="#24C2E5" fill-opacity="0.49"/>
<path d="M17.5 194.5V177.5H19.5V194.5H17.5Z" fill="#14FF00"/>
<path d="M19.5 240H17.5V258H19.5V240Z" fill="#14FF00"/>
<path d="M1 122.5L14.5 114V120L1 128.5V122.5Z" fill="#14FF00"/>
<path d="M1 133L14.5 124.5V130.5L1 139V133Z" fill="#14FF00"/>
<path d="M1 143.5L14.5 135V141L1 149.5V143.5Z" fill="#14FF00"/>
<path d="M1 154L14.5 145.5V151.5L1 160V154Z" fill="#14FF00"/>
<path d="M1 165L14.5 156.5V162.5L1 171V165Z" fill="#14FF00"/>
<path d="M1 175.5L14.5 167V173L1 181.5V175.5Z" fill="#14FF00"/>
<path d="M1 186L14.5 177.5V183.5L1 192V186Z" fill="#14FF00"/>
<path d="M1 196.5L14.5 188V194L1 202.5V196.5Z" fill="#14FF00"/>
<path d="M1 239.5V233L14 241.5V248L1 239.5Z" fill="#14FF00"/>
<path d="M1 250V243.5L14 252V258.5L1 250Z" fill="#14FF00"/>
<path d="M1 260.5V254L14 262.5V269L1 260.5Z" fill="#14FF00"/>
<path d="M1 271V264.5L14 273V279.5L1 271Z" fill="#14FF00"/>
<path d="M1 281.5V275L14 283.5V290L1 281.5Z" fill="#14FF00"/>
<path d="M1 292V285.5L14 294V300.5L1 292Z" fill="#14FF00"/>
<path d="M1 302.5V296L14 304.5V311L1 302.5Z" fill="#14FF00"/>
<path d="M1 312.5V306L14 314.5V321L1 312.5Z" fill="#14FF00"/>
<path d="M12 113L17.5 109V194.5H19.5V177.5H17.5M12 321.5L17.5 325V258M17.5 258V240H19.5V258H17.5ZM14.5 114L1 122.5V128.5L14.5 120V114ZM14.5 124.5L1 133V139L14.5 130.5V124.5ZM14.5 135L1 143.5V149.5L14.5 141V135ZM14.5 145.5L1 154V160L14.5 151.5V145.5ZM14.5 156.5L1 165V171L14.5 162.5V156.5ZM14.5 167L1 175.5V181.5L14.5 173V167ZM14.5 177.5L1 186V192L14.5 183.5V177.5ZM14.5 188L1 196.5V202.5L14.5 194V188ZM1 233V239.5L14 248V241.5L1 233ZM1 243.5V250L14 258.5V252L1 243.5ZM1 254V260.5L14 269V262.5L1 254ZM1 264.5V271L14 279.5V273L1 264.5ZM1 275V281.5L14 290V283.5L1 275ZM1 285.5V292L14 300.5V294L1 285.5ZM1 296V302.5L14 311V304.5L1 296ZM1 306V312.5L14 321V314.5L1 306Z" stroke="#FF0000"/>
<path d="M653 194.5H654.5V178H653V194.5Z" fill="#00FF0A"/>
<path d="M653 194.5H654.5V178H653V194.5Z" fill="black" fill-opacity="0.2"/>
<path d="M653 241.5H654.5V258H653V241.5Z" fill="#00FF0A"/>
<path d="M653 241.5H654.5V258H653V241.5Z" fill="black" fill-opacity="0.2"/>
<path d="M657.5 120.5V114L671 122.5V128.5L657.5 120.5Z" fill="#00FF0A"/>
<path d="M657.5 120.5V114L671 122.5V128.5L657.5 120.5Z" fill="black" fill-opacity="0.2"/>
<path d="M671 138.5L657.5 130.5V124L671 132.5V138.5Z" fill="#00FF0A"/>
<path d="M671 138.5L657.5 130.5V124L671 132.5V138.5Z" fill="black" fill-opacity="0.2"/>
<path d="M671 149.5L657.5 141.5V135L671 143.5V149.5Z" fill="#00FF0A"/>
<path d="M671 149.5L657.5 141.5V135L671 143.5V149.5Z" fill="black" fill-opacity="0.2"/>
<path d="M671 160L657.5 152V145.5L671 154V160Z" fill="#00FF0A"/>
<path d="M671 160L657.5 152V145.5L671 154V160Z" fill="black" fill-opacity="0.2"/>
<path d="M671 170.5L657.5 162.5V156L671 164.5V170.5Z" fill="#00FF0A"/>
<path d="M671 170.5L657.5 162.5V156L671 164.5V170.5Z" fill="black" fill-opacity="0.2"/>
<path d="M671 181L657.5 173V166.5L671 175V181Z" fill="#00FF0A"/>
<path d="M671 181L657.5 173V166.5L671 175V181Z" fill="black" fill-opacity="0.2"/>
<path d="M671 191.5L657.5 183.5V177L671 185.5V191.5Z" fill="#00FF0A"/>
<path d="M671 191.5L657.5 183.5V177L671 185.5V191.5Z" fill="black" fill-opacity="0.2"/>
<path d="M671 202L657.5 194V187.5L671 196V202Z" fill="#00FF0A"/>
<path d="M671 202L657.5 194V187.5L671 196V202Z" fill="black" fill-opacity="0.2"/>
<path d="M657.5 241.5L671 233.5V239.5L657.5 248V241.5Z" fill="#00FF0A"/>
<path d="M657.5 241.5L671 233.5V239.5L657.5 248V241.5Z" fill="black" fill-opacity="0.2"/>
<path d="M657.5 252L671 244V250L657.5 258.5V252Z" fill="#00FF0A"/>
<path d="M657.5 252L671 244V250L657.5 258.5V252Z" fill="black" fill-opacity="0.2"/>
<path d="M657.5 262.5L671 254.5V260.5L657.5 269V262.5Z" fill="#00FF0A"/>
<path d="M657.5 262.5L671 254.5V260.5L657.5 269V262.5Z" fill="black" fill-opacity="0.2"/>
<path d="M657.5 273L671 265V271L657.5 279.5V273Z" fill="#00FF0A"/>
<path d="M657.5 273L671 265V271L657.5 279.5V273Z" fill="black" fill-opacity="0.2"/>
<path d="M657.5 283.5L671 275.5V281.5L657.5 290V283.5Z" fill="#00FF0A"/>
<path d="M657.5 283.5L671 275.5V281.5L657.5 290V283.5Z" fill="black" fill-opacity="0.2"/>
<path d="M657.5 294.5L671 286.5V292.5L657.5 301V294.5Z" fill="#00FF0A"/>
<path d="M657.5 294.5L671 286.5V292.5L657.5 301V294.5Z" fill="black" fill-opacity="0.2"/>
<path d="M657.5 305L671 297V303L657.5 311.5V305Z" fill="#00FF0A"/>
<path d="M657.5 305L671 297V303L657.5 311.5V305Z" fill="black" fill-opacity="0.2"/>
<path d="M657.5 315L671 307V313L657.5 321.5V315Z" fill="#00FF0A"/>
<path d="M657.5 315L671 307V313L657.5 321.5V315Z" fill="black" fill-opacity="0.2"/>
<path d="M660.5 113L654.5 109V178M654.5 178V194.5H653V178H654.5ZM660.5 321.5L654.5 325V258M654.5 258V241.5H653V258H654.5ZM657.5 114V120.5L671 128.5V122.5L657.5 114ZM657.5 124L671 132.5V138.5L657.5 130.5V124ZM657.5 135L671 143.5V149.5L657.5 141.5V135ZM657.5 145.5L671 154V160L657.5 152V145.5ZM657.5 156L671 164.5V170.5L657.5 162.5V156ZM657.5 166.5L671 175V181L657.5 173V166.5ZM657.5 177L671 185.5V191.5L657.5 183.5V177ZM657.5 187.5L671 196V202L657.5 194V187.5ZM671 233.5L657.5 241.5V248L671 239.5V233.5ZM671 244L657.5 252V258.5L671 250V244ZM671 254.5L657.5 262.5V269L671 260.5V254.5ZM671 265L657.5 273V279.5L671 271V265ZM671 275.5L657.5 283.5V290L671 281.5V275.5ZM671 286.5L657.5 294.5V301L671 292.5V286.5ZM671 297L657.5 305V311.5L671 303V297ZM671 307L657.5 315V321.5L671 313V307Z" stroke="#FF0000"/>
<path d="M319 0.5H325V1.5H318.5H311.5L303.5 15.5V17H258L256.5 15.5H203H195H188.5H180.5H173L171 17H167L165.5 15.5H173H180.5H188.5H195H203H256.5H303.5L311.5 1.5H318.5L319 0.5Z" fill="#14FF00"/>
<path d="M348 1.5V0.5H354V1.5H362L369.5 15.5H417H470H478H485.5H493.5H500.5H508L506.5 17H502L500.5 15.5H493.5H485.5H478H470H417L415 17H369.5V15.5L362 1.5H354H348Z" fill="#14FF00"/>
<path d="M75.5 46H78H540.5H543V56.5H540.5V46H78V56.5H75.5V46Z" fill="#14FF00"/>
<path d="M68 382H71.5V369.5H68V382Z" fill="#14FF00"/>
<path d="M85 335.5V333.5H103V335.5H85Z" fill="#14FF00"/>
<path d="M95 328.5H85V331.5H95V328.5Z" fill="#14FF00"/>
<path d="M97 331.5V328.5H106V331.5H97Z" fill="#14FF00"/>
<path d="M108 331.5V328.5H118V331.5H108Z" fill="#14FF00"/>
<path d="M120 331.5V328.5H130V331.5H120Z" fill="#14FF00"/>
<path d="M54 321L58 326L54 331.5L49.5 326L54 321Z" fill="#14FF00"/>
<path d="M319 438V436.5H311L303.5 422.5H256.5H202.5H194.5H187.5H180H172H165L166.5 420.5H171L172 422.5H180H187.5H194.5H202.5H256.5L258 420.5H303.5V422.5L311 436.5H319H325V438H319Z" fill="#14FF00"/>
<path d="M354 436.5V438H348V436.5H354H362.236L369 422.5V420.5H415.5L417 422.5H469.5H478H485.5H493.5H500.5L502 420.5H506.5L507.5 422.5H500.5H493.5H485.5H478H469.5H417H369L362.236 436.5H354Z" fill="#14FF00"/>
<path d="M23 182.5V47.5L63 7.5H301.5M369.5 7.5H608L648 47.5V182.5M648 254.5V390.5L608 430.5H369M302 430.5H63L23 390.5V255M318.5 1.5L319 0.5H325V1.5H318.5ZM318.5 1.5H311.5L303.5 15.5M303.5 15.5H256.5M303.5 15.5V17H258L256.5 15.5M165.5 15.5L161.5 19.5M165.5 15.5L167 17H171L173 15.5M165.5 15.5H173M173 15.5H180.5M174.5 17H179L180.5 15.5M180.5 15.5H188.5M182.5 17H187L188.5 15.5M188.5 15.5H195M190 17H193.5L195 15.5M195 15.5H203M197 17H201.5L203 15.5M203 15.5H256.5M354 1.5H348V0.5H354V1.5ZM354 1.5H362L369.5 15.5M369.5 15.5H417M369.5 15.5V17H415L417 15.5M500.5 15.5H508L506.5 17H502L500.5 15.5ZM500.5 15.5H493.5M499 17H495.5L493.5 15.5M493.5 15.5H485.5M492 17H487.5L485.5 15.5M485.5 15.5H478M484 17H479.5L478 15.5M478 15.5H470M476.5 17H471.5L470 15.5M470 15.5H417M75.5 46H78V56.5H75.5V46ZM75.5 46H540.5M540.5 46H543V56.5H540.5V46ZM535 52.5H364.5M535 54.5H522M362 62.5H134.5M71.5 211.5V369.5M71.5 369.5V382H68V369.5H71.5ZM131.5 333.5H103M103 333.5H85V335.5H103V333.5ZM77.5 370.5H369.5M378 336V408M375 397V408M65.5 326H58M58 326L54 321L49.5 326L54 331.5L58 326ZM387.5 370.5H543.5M581.5 97.5L611.5 67V128.5M616 66V77.5M616 129.5V77.5M616 77.5H638M611.5 288.5V351L572.5 312M616 288.5V298.5M616 351V298.5M616 298.5H638M319 436.5V438H325V436.5H311L303.5 422.5M303.5 422.5H256.5M303.5 422.5V420.5H258L256.5 422.5M165 422.5L162 419M165 422.5L166.5 420.5H171L172 422.5M165 422.5H172M172 422.5H180M174.5 420.5H178.5L180 422.5M180 422.5H187.5M182 420.5H186.5L187.5 422.5M187.5 422.5H194.5M189.5 420.5H193.5L194.5 422.5M194.5 422.5H202.5M196.5 420.5H201L202.5 422.5M202.5 422.5H256.5M354 436.5V438H348V436.5H362.236L369 422.5M369 422.5H417M369 422.5V420.5H415.5L417 422.5M507.5 422.5L512.5 417.5M507.5 422.5L506.5 420.5H502L500.5 422.5M507.5 422.5H500.5M500.5 422.5H493.5M498.5 420.5H494.5L493.5 422.5M493.5 422.5H485.5M491 420.5H487L485.5 422.5M485.5 422.5H478M483.5 420.5H479L478 422.5M478 422.5H469.5M476 420.5H471L469.5 422.5M469.5 422.5H417M656 200L641 208.5V226L656 235L671 226V208.5L656.5 200M16 200L1 208.5V226L16 235L31 226V208.5L16.5 200M85 328.5H95V331.5H85V328.5ZM97 328.5V331.5H106V328.5H97ZM108 328.5V331.5H118V328.5H108ZM120 328.5V331.5H130V328.5H120Z" stroke="#FF0000"/>
<path d="M652 215.5L656 212.5L660 215.5V219.5L656 222.5L652 219.5V215.5Z" fill="#24C2E5" fill-opacity="0.49"/>
<path d="M12 215.5L16 212.5L20 215.5V219.5L16 222.5L12 219.5V215.5Z" fill="#24C2E5" fill-opacity="0.49"/>
<path d="M648 209.5L656 204.5L664 209.5M664 225.5L656 230.5L648 225.5M8 209.5L16 204.5L24 209.5M24 225.5L16 230.5L8 225.5M656 212.5L652 215.5V219.5L656 222.5L660 219.5V215.5L656 212.5ZM16 212.5L12 215.5V219.5L16 222.5L20 219.5V215.5L16 212.5Z" stroke="#FF0000"/>
<circle cx="36.5" cy="55" r="3" fill="#FF0000"/>
</svg>
