<svg width="155" height="48" viewBox="0 0 155 48" fill="none" xmlns="http://www.w3.org/2000/svg">
<rect width="155" height="47.5791" rx="23.7895" fill="url(#paint0_linear_258_41)"/>
<path d="M57.756 28.0037C57.084 28.0037 56.44 27.9157 55.824 27.7397C55.208 27.5557 54.712 27.3197 54.336 27.0317L54.996 25.5677C55.356 25.8237 55.78 26.0357 56.268 26.2037C56.764 26.3637 57.264 26.4437 57.768 26.4437C58.152 26.4437 58.46 26.4077 58.692 26.3357C58.932 26.2557 59.108 26.1477 59.22 26.0117C59.332 25.8757 59.388 25.7197 59.388 25.5437C59.388 25.3197 59.3 25.1437 59.124 25.0157C58.948 24.8797 58.716 24.7717 58.428 24.6917C58.14 24.6037 57.82 24.5237 57.468 24.4517C57.124 24.3717 56.776 24.2757 56.424 24.1637C56.08 24.0517 55.764 23.9077 55.476 23.7317C55.188 23.5557 54.952 23.3237 54.768 23.0357C54.592 22.7477 54.504 22.3797 54.504 21.9317C54.504 21.4517 54.632 21.0157 54.888 20.6237C55.152 20.2237 55.544 19.9077 56.064 19.6757C56.592 19.4357 57.252 19.3157 58.044 19.3157C58.572 19.3157 59.092 19.3797 59.604 19.5077C60.116 19.6277 60.568 19.8117 60.96 20.0597L60.36 21.5357C59.968 21.3117 59.576 21.1477 59.184 21.0437C58.792 20.9317 58.408 20.8757 58.032 20.8757C57.656 20.8757 57.348 20.9197 57.108 21.0077C56.868 21.0957 56.696 21.2117 56.592 21.3557C56.488 21.4917 56.436 21.6517 56.436 21.8357C56.436 22.0517 56.524 22.2277 56.7 22.3637C56.876 22.4917 57.108 22.5957 57.396 22.6757C57.684 22.7557 58 22.8357 58.344 22.9157C58.696 22.9957 59.044 23.0877 59.388 23.1917C59.74 23.2957 60.06 23.4357 60.348 23.6117C60.636 23.7877 60.868 24.0197 61.044 24.3077C61.228 24.5957 61.32 24.9597 61.32 25.3997C61.32 25.8717 61.188 26.3037 60.924 26.6957C60.66 27.0877 60.264 27.4037 59.736 27.6437C59.216 27.8837 58.556 28.0037 57.756 28.0037ZM62.5163 27.8597V21.4037H64.3883V27.8597H62.5163ZM63.4523 20.5037C63.1083 20.5037 62.8283 20.4037 62.6123 20.2037C62.3963 20.0037 62.2883 19.7557 62.2883 19.4597C62.2883 19.1637 62.3963 18.9157 62.6123 18.7157C62.8283 18.5157 63.1083 18.4157 63.4523 18.4157C63.7963 18.4157 64.0763 18.5117 64.2923 18.7037C64.5083 18.8877 64.6163 19.1277 64.6163 19.4237C64.6163 19.7357 64.5083 19.9957 64.2923 20.2037C64.0843 20.4037 63.8043 20.5037 63.4523 20.5037ZM69.1617 30.2837C68.5537 30.2837 67.9657 30.2077 67.3977 30.0557C66.8377 29.9117 66.3697 29.6917 65.9937 29.3957L66.7377 28.0517C67.0097 28.2757 67.3537 28.4517 67.7697 28.5797C68.1937 28.7157 68.6097 28.7837 69.0177 28.7837C69.6817 28.7837 70.1617 28.6357 70.4577 28.3397C70.7617 28.0437 70.9137 27.6037 70.9137 27.0197V26.0477L71.0337 24.4277L71.0097 22.7957V21.4037H72.7857V26.7797C72.7857 27.9797 72.4737 28.8637 71.8497 29.4317C71.2257 29.9997 70.3297 30.2837 69.1617 30.2837ZM68.8737 27.5477C68.2737 27.5477 67.7297 27.4197 67.2417 27.1637C66.7617 26.8997 66.3737 26.5357 66.0777 26.0717C65.7897 25.5997 65.6457 25.0517 65.6457 24.4277C65.6457 23.7957 65.7897 23.2477 66.0777 22.7837C66.3737 22.3117 66.7617 21.9477 67.2417 21.6917C67.7297 21.4357 68.2737 21.3077 68.8737 21.3077C69.4177 21.3077 69.8977 21.4197 70.3137 21.6437C70.7297 21.8597 71.0537 22.1997 71.2857 22.6637C71.5177 23.1197 71.6337 23.7077 71.6337 24.4277C71.6337 25.1397 71.5177 25.7277 71.2857 26.1917C71.0537 26.6477 70.7297 26.9877 70.3137 27.2117C69.8977 27.4357 69.4177 27.5477 68.8737 27.5477ZM69.2457 26.0117C69.5737 26.0117 69.8657 25.9477 70.1217 25.8197C70.3777 25.6837 70.5777 25.4957 70.7217 25.2557C70.8657 25.0157 70.9377 24.7397 70.9377 24.4277C70.9377 24.1077 70.8657 23.8317 70.7217 23.5997C70.5777 23.3597 70.3777 23.1757 70.1217 23.0477C69.8657 22.9117 69.5737 22.8437 69.2457 22.8437C68.9177 22.8437 68.6257 22.9117 68.3697 23.0477C68.1137 23.1757 67.9097 23.3597 67.7577 23.5997C67.6137 23.8317 67.5417 24.1077 67.5417 24.4277C67.5417 24.7397 67.6137 25.0157 67.7577 25.2557C67.9097 25.4957 68.1137 25.6837 68.3697 25.8197C68.6257 25.9477 68.9177 26.0117 69.2457 26.0117ZM78.4521 21.3077C78.9641 21.3077 79.4201 21.4117 79.8201 21.6197C80.2281 21.8197 80.5481 22.1317 80.7801 22.5557C81.0121 22.9717 81.1281 23.5077 81.1281 24.1637V27.8597H79.2561V24.4517C79.2561 23.9317 79.1401 23.5477 78.9081 23.2997C78.6841 23.0517 78.3641 22.9277 77.9481 22.9277C77.6521 22.9277 77.3841 22.9917 77.1441 23.1197C76.9121 23.2397 76.7281 23.4277 76.5921 23.6837C76.4641 23.9397 76.4001 24.2677 76.4001 24.6677V27.8597H74.5281V21.4037H76.3161V23.1917L75.9801 22.6517C76.2121 22.2197 76.5441 21.8877 76.9761 21.6557C77.4081 21.4237 77.9001 21.3077 78.4521 21.3077ZM86.2234 27.8597V21.4037H88.0954V27.8597H86.2234ZM87.1594 20.5037C86.8154 20.5037 86.5354 20.4037 86.3194 20.2037C86.1034 20.0037 85.9954 19.7557 85.9954 19.4597C85.9954 19.1637 86.1034 18.9157 86.3194 18.7157C86.5354 18.5157 86.8154 18.4157 87.1594 18.4157C87.5034 18.4157 87.7834 18.5117 87.9994 18.7037C88.2154 18.8877 88.3234 19.1277 88.3234 19.4237C88.3234 19.7357 88.2154 19.9957 87.9994 20.2037C87.7914 20.4037 87.5114 20.5037 87.1594 20.5037ZM93.7568 21.3077C94.2688 21.3077 94.7248 21.4117 95.1248 21.6197C95.5328 21.8197 95.8528 22.1317 96.0848 22.5557C96.3168 22.9717 96.4328 23.5077 96.4328 24.1637V27.8597H94.5608V24.4517C94.5608 23.9317 94.4448 23.5477 94.2128 23.2997C93.9888 23.0517 93.6688 22.9277 93.2528 22.9277C92.9568 22.9277 92.6888 22.9917 92.4488 23.1197C92.2168 23.2397 92.0328 23.4277 91.8968 23.6837C91.7688 23.9397 91.7048 24.2677 91.7048 24.6677V27.8597H89.8328V21.4037H91.6208V23.1917L91.2848 22.6517C91.5168 22.2197 91.8488 21.8877 92.2808 21.6557C92.7128 21.4237 93.2048 21.3077 93.7568 21.3077Z" fill="#343045"/>
<defs>
<linearGradient id="paint0_linear_258_41" x1="0" y1="23.7895" x2="155" y2="23.7895" gradientUnits="userSpaceOnUse">
<stop stop-color="#8176AF"/>
<stop offset="1" stop-color="#C0B7E8"/>
</linearGradient>
</defs>
</svg>
