<svg width="214" height="48" viewBox="0 0 214 48" fill="none" xmlns="http://www.w3.org/2000/svg">
<rect width="214" height="48" rx="24" fill="url(#paint0_linear_243_51)"/>
<path d="M63.695 30.18C62.855 30.18 62.05 30.07 61.28 29.85C60.51 29.62 59.89 29.325 59.42 28.965L60.245 27.135C60.695 27.455 61.225 27.72 61.835 27.93C62.455 28.13 63.08 28.23 63.71 28.23C64.19 28.23 64.575 28.185 64.865 28.095C65.165 27.995 65.385 27.86 65.525 27.69C65.665 27.52 65.735 27.325 65.735 27.105C65.735 26.825 65.625 26.605 65.405 26.445C65.185 26.275 64.895 26.14 64.535 26.04C64.175 25.93 63.775 25.83 63.335 25.74C62.905 25.64 62.47 25.52 62.03 25.38C61.6 25.24 61.205 25.06 60.845 24.84C60.485 24.62 60.19 24.33 59.96 23.97C59.74 23.61 59.63 23.15 59.63 22.59C59.63 21.99 59.79 21.445 60.11 20.955C60.44 20.455 60.93 20.06 61.58 19.77C62.24 19.47 63.065 19.32 64.055 19.32C64.715 19.32 65.365 19.4 66.005 19.56C66.645 19.71 67.21 19.94 67.7 20.25L66.95 22.095C66.46 21.815 65.97 21.61 65.48 21.48C64.99 21.34 64.51 21.27 64.04 21.27C63.57 21.27 63.185 21.325 62.885 21.435C62.585 21.545 62.37 21.69 62.24 21.87C62.11 22.04 62.045 22.24 62.045 22.47C62.045 22.74 62.155 22.96 62.375 23.13C62.595 23.29 62.885 23.42 63.245 23.52C63.605 23.62 64 23.72 64.43 23.82C64.87 23.92 65.305 24.035 65.735 24.165C66.175 24.295 66.575 24.47 66.935 24.69C67.295 24.91 67.585 25.2 67.805 25.56C68.035 25.92 68.15 26.375 68.15 26.925C68.15 27.515 67.985 28.055 67.655 28.545C67.325 29.035 66.83 29.43 66.17 29.73C65.52 30.03 64.695 30.18 63.695 30.18ZM71.8389 30V21.48H68.4789V19.5H77.6289V21.48H74.2689V30H71.8389ZM77.0291 30L81.7091 19.5H84.1091L88.8041 30H86.2541L82.4141 20.73H83.3741L79.5191 30H77.0291ZM79.3691 27.75L80.0141 25.905H85.4141L86.0741 27.75H79.3691ZM89.8934 30V19.5H94.4384C95.3784 19.5 96.1884 19.655 96.8684 19.965C97.5484 20.265 98.0734 20.7 98.4434 21.27C98.8134 21.84 98.9984 22.52 98.9984 23.31C98.9984 24.09 98.8134 24.765 98.4434 25.335C98.0734 25.895 97.5484 26.325 96.8684 26.625C96.1884 26.925 95.3784 27.075 94.4384 27.075H91.2434L92.3234 26.01V30H89.8934ZM96.5684 30L93.9434 26.19H96.5384L99.1934 30H96.5684ZM92.3234 26.28L91.2434 25.14H94.3034C95.0534 25.14 95.6134 24.98 95.9834 24.66C96.3534 24.33 96.5384 23.88 96.5384 23.31C96.5384 22.73 96.3534 22.28 95.9834 21.96C95.6134 21.64 95.0534 21.48 94.3034 21.48H91.2434L92.3234 20.325V26.28ZM102.952 30V21.48H99.5922V19.5H108.742V21.48H105.382V30H102.952ZM114.298 30V19.5H116.308L122.503 27.06H121.528V19.5H123.928V30H121.933L115.723 22.44H116.698V30H114.298ZM131.512 30.18C130.682 30.18 129.912 30.045 129.202 29.775C128.502 29.505 127.892 29.125 127.372 28.635C126.862 28.145 126.462 27.57 126.172 26.91C125.892 26.25 125.752 25.53 125.752 24.75C125.752 23.97 125.892 23.25 126.172 22.59C126.462 21.93 126.867 21.355 127.387 20.865C127.907 20.375 128.517 19.995 129.217 19.725C129.917 19.455 130.677 19.32 131.497 19.32C132.327 19.32 133.087 19.455 133.777 19.725C134.477 19.995 135.082 20.375 135.592 20.865C136.112 21.355 136.517 21.93 136.807 22.59C137.097 23.24 137.242 23.96 137.242 24.75C137.242 25.53 137.097 26.255 136.807 26.925C136.517 27.585 136.112 28.16 135.592 28.65C135.082 29.13 134.477 29.505 133.777 29.775C133.087 30.045 132.332 30.18 131.512 30.18ZM131.497 28.11C131.967 28.11 132.397 28.03 132.787 27.87C133.187 27.71 133.537 27.48 133.837 27.18C134.137 26.88 134.367 26.525 134.527 26.115C134.697 25.705 134.782 25.25 134.782 24.75C134.782 24.25 134.697 23.795 134.527 23.385C134.367 22.975 134.137 22.62 133.837 22.32C133.547 22.02 133.202 21.79 132.802 21.63C132.402 21.47 131.967 21.39 131.497 21.39C131.027 21.39 130.592 21.47 130.192 21.63C129.802 21.79 129.457 22.02 129.157 22.32C128.857 22.62 128.622 22.975 128.452 23.385C128.292 23.795 128.212 24.25 128.212 24.75C128.212 25.24 128.292 25.695 128.452 26.115C128.622 26.525 128.852 26.88 129.142 27.18C129.442 27.48 129.792 27.71 130.192 27.87C130.592 28.03 131.027 28.11 131.497 28.11ZM141.251 30L137.816 19.5H140.336L143.321 28.8H142.061L145.181 19.5H147.431L150.431 28.8H149.216L152.276 19.5H154.601L151.166 30H148.556L145.901 21.84H146.591L143.861 30H141.251Z" fill="#343045"/>
<defs>
<linearGradient id="paint0_linear_243_51" x1="0" y1="24" x2="214" y2="24" gradientUnits="userSpaceOnUse">
<stop stop-color="#8176AF"/>
<stop offset="1" stop-color="#C0B7E8"/>
</linearGradient>
</defs>
</svg>
